<svg id="logosandtypes_com" xmlns="http://www.w3.org/2000/svg" viewBox="0 0 150 150"><path d="M120.1 89.4c-1-3.4-3.4-6.3-6.6-8l-13.8-8.1c.3-.7.9-.8 1.5-1.1l13.1-7.8c4.9-3 7-7.8 5.8-13-.9-3.4-3.2-6.3-6.4-8L53.4 7.5C49.3 5.1 45 4.7 40.8 7 36.6 9.3 35 11.6 35 18s-.1 12.6 0 18.9c0 8.4 4.3 16.1 11.5 20.4 4.5 2.8 26.6 15.8 26.6 15.8S54.9 83.8 46.6 89c-6.7 3.9-11 11-11.4 18.8-.5 7.2-.1 14.3-.1 21.5 0 4.9 3.2 9.3 7.8 10.8 3.7 1 7.7.4 10.8-1.8l60.2-35.6c5.2-3.1 7.5-8.2 6.2-13.3zM53.4 45.8c-2.9-1.7-4.8-4.9-4.9-8.3-.3-5.7 0-11.4 0-17.5l57 34-18.3 10.9c-.5.4-1.2.4-1.8 0l-32-19.1zM48.5 126c0-6.1-.3-11.9.1-17.7.3-3.6 2.4-6.7 5.5-8.4l30.8-18.3c.8-.6 1.8-.6 2.6 0l17.9 10.6L48.5 126z" fill="#f15625"/><path d="M0 0h150v150H0V0z" fill="none"/></svg>