<svg xmlns:x="ns_extend;" xmlns:i="ns_ai;" xmlns:graph="ns_graphs;" xmlns="http://www.w3.org/2000/svg" xmlns:xlink="http://www.w3.org/1999/xlink" version="1.1" id="Layer_1" x="0px" y="0px" viewBox="0 0 44 44" style="enable-background:new 0 0 44 44;" xml:space="preserve">
 <style type="text/css">
  .st0{fill-rule:evenodd;clip-rule:evenodd;fill:#000000;}
 </style>
 <metadata fill="#000000">
  <sfw xmlns="ns_sfw;" fill="#000000">
   <slices fill="#000000">
   </slices>
   <sliceSourceBounds bottomLeftOrigin="true" height="44" width="44" x="0" y="0" fill="#000000">
   </sliceSourceBounds>
  </sfw>
 </metadata>
 <g>
  <g>
   <g>
    <path class="st0" d="M0,10.5C0,4.7,4.7,0,10.5,0h23C39.3,0,44,4.7,44,10.5v23C44,39.3,39.3,44,33.5,44h-23C4.7,44,0,39.3,0,33.5     V10.5z M33.5,15.7c0,2.9-2.3,5.2-5.2,5.2S23,18.6,23,15.7s2.3-5.2,5.2-5.2S33.5,12.8,33.5,15.7z M15.7,10.5     c-2.9,0-5.2,2.3-5.2,5.2v16.8c0,0.6,0.5,1,1,1h4.2c2.9,0,5.2-2.3,5.2-5.2V11.5c0-0.6-0.5-1-1-1H15.7z" fill="#000000">
    </path>
   </g>
  </g>
 </g>
</svg>