<svg xmlns="http://www.w3.org/2000/svg" viewBox="0 0 1499.9 1499.9"><defs><style>.cls-1{fill:#fff;}.cls-2,.cls-3,.cls-6{fill:none;}.cls-3{stroke:#4169e1;stroke-dasharray:47.87 47.87;}.cls-3,.cls-6{stroke-linecap:round;stroke-miterlimit:10;stroke-width:20px;}.cls-4{fill:#1c1c1c;}.cls-5{font-size:145px;font-family:Poppins-BlackItalic, Poppins;font-weight:800;font-style:italic;}.cls-6{stroke:#000;}</style></defs><title>Ethical_Hacking_Frame2</title><g id="Layer_1" data-name="Layer 1"><rect class="cls-1" width="1499.9" height="1499.9"/><rect x="732.45" y="365.18" width="35" height="35"/><rect x="872.45" y="365.18" width="35" height="35"/><rect x="907.45" y="365.18" width="35" height="35"/><rect x="522.45" y="400.18" width="35" height="35"/><rect x="557.45" y="400.18" width="35" height="35"/><rect x="627.45" y="400.18" width="35" height="35"/><rect x="697.45" y="400.18" width="35" height="35"/><rect x="837.45" y="400.18" width="35" height="35"/><rect x="872.45" y="400.18" width="35" height="35"/><rect x="907.45" y="400.18" width="35" height="35"/><rect x="627.45" y="435.18" width="35" height="35"/><rect x="767.45" y="435.18" width="35" height="35"/><rect x="907.45" y="435.18" width="35" height="35"/><rect x="557.45" y="470.18" width="35" height="35"/><rect x="592.45" y="470.18" width="35" height="35"/><rect x="662.45" y="470.18" width="35" height="35"/><rect x="697.45" y="470.18" width="35" height="35"/><rect x="872.45" y="470.18" width="35" height="35"/><rect x="522.45" y="505.18" width="35" height="35"/><rect x="557.45" y="505.18" width="35" height="35"/><rect x="662.45" y="505.18" width="35" height="35"/><rect x="697.45" y="505.18" width="35" height="35"/><rect x="802.45" y="505.18" width="35" height="35"/><rect x="907.45" y="505.18" width="35" height="35"/><rect x="592.45" y="540.18" width="35" height="35"/><rect x="662.45" y="540.18" width="35" height="35"/><rect x="732.45" y="540.18" width="35" height="35"/><rect x="767.45" y="540.18" width="35" height="35"/><rect x="802.45" y="540.18" width="35" height="35"/><rect x="837.45" y="540.18" width="35" height="35"/><rect x="872.45" y="540.18" width="35" height="35"/><rect x="907.45" y="540.18" width="35" height="35"/><rect x="522.45" y="575.18" width="35" height="35"/><rect x="592.45" y="575.18" width="35" height="35"/><rect x="662.45" y="575.18" width="35" height="35"/><rect x="732.45" y="575.18" width="35" height="35"/><rect x="802.45" y="575.18" width="35" height="35"/><rect x="872.45" y="575.18" width="35" height="35"/><rect x="942.45" y="575.18" width="35" height="35"/><rect x="557.45" y="610.18" width="35" height="35"/><rect x="592.45" y="610.18" width="35" height="35"/><rect x="627.45" y="610.18" width="35" height="35"/><rect x="767.45" y="610.18" width="35" height="35"/><rect x="802.45" y="610.18" width="35" height="35"/><rect x="837.45" y="610.18" width="35" height="35"/><rect x="942.45" y="610.18" width="35" height="35"/><rect x="242.45" y="645.18" width="35" height="35"/><rect x="312.45" y="645.18" width="35" height="35"/><rect x="382.45" y="645.18" width="35" height="35"/><rect x="452.45" y="645.18" width="35" height="35"/><rect x="592.45" y="645.18" width="35" height="35"/><rect x="662.45" y="645.18" width="35" height="35"/><rect x="767.45" y="645.18" width="35" height="35"/><rect x="802.45" y="645.18" width="35" height="35"/><rect x="837.45" y="645.18" width="35" height="35"/><rect x="872.45" y="645.18" width="35" height="35"/><rect x="907.45" y="645.18" width="35" height="35"/><rect x="942.45" y="645.18" width="35" height="35"/><rect x="1082.45" y="645.18" width="35" height="35"/><rect x="1187.45" y="645.18" width="35" height="35"/><rect x="277.45" y="680.18" width="35" height="35"/><rect x="382.45" y="680.18" width="35" height="35"/><rect x="522.45" y="680.18" width="35" height="35"/><rect x="592.45" y="680.18" width="35" height="35"/><rect x="662.45" y="680.18" width="35" height="35"/><rect x="697.45" y="680.18" width="35" height="35"/><rect x="802.45" y="680.18" width="35" height="35"/><rect x="1012.45" y="680.18" width="35" height="35"/><rect x="1117.45" y="680.18" width="35" height="35"/><rect x="1222.45" y="680.18" width="35" height="35"/><rect x="277.45" y="715.18" width="35" height="35"/><rect x="347.45" y="715.18" width="35" height="35"/><rect x="417.45" y="715.18" width="35" height="35"/><rect x="452.45" y="715.18" width="35" height="35"/><rect x="522.45" y="715.18" width="35" height="35"/><rect x="732.45" y="715.18" width="35" height="35"/><rect x="837.45" y="715.18" width="35" height="35"/><rect x="977.45" y="715.18" width="35" height="35"/><rect x="1012.45" y="715.18" width="35" height="35"/><rect x="1152.45" y="715.18" width="35" height="35"/><rect x="1187.45" y="715.18" width="35" height="35"/><rect x="1222.45" y="715.18" width="35" height="35"/><rect x="277.45" y="750.18" width="35" height="35"/><rect x="312.45" y="750.18" width="35" height="35"/><rect x="417.45" y="750.18" width="35" height="35"/><rect x="487.45" y="750.18" width="35" height="35"/><rect x="557.45" y="750.18" width="35" height="35"/><rect x="627.45" y="750.18" width="35" height="35"/><rect x="697.45" y="750.18" width="35" height="35"/><rect x="732.45" y="750.18" width="35" height="35"/><rect x="802.45" y="750.18" width="35" height="35"/><rect x="837.45" y="750.18" width="35" height="35"/><rect x="872.45" y="750.18" width="35" height="35"/><rect x="1012.45" y="750.18" width="35" height="35"/><rect x="1082.45" y="750.18" width="35" height="35"/><rect x="1187.45" y="750.18" width="35" height="35"/><rect x="242.45" y="785.18" width="35" height="35"/><rect x="312.45" y="785.18" width="35" height="35"/><rect x="382.45" y="785.18" width="35" height="35"/><rect x="452.45" y="785.18" width="35" height="35"/><rect x="487.45" y="785.18" width="35" height="35"/><rect x="557.45" y="785.18" width="35" height="35"/><rect x="592.45" y="785.18" width="35" height="35"/><rect x="732.45" y="785.18" width="35" height="35"/><rect x="802.45" y="785.18" width="35" height="35"/><rect x="837.45" y="785.18" width="35" height="35"/><rect x="977.45" y="785.18" width="35" height="35"/><rect x="1012.45" y="785.18" width="35" height="35"/><rect x="1117.45" y="785.18" width="35" height="35"/><rect x="1187.45" y="785.18" width="35" height="35"/><rect x="1222.45" y="785.18" width="35" height="35"/><rect x="277.45" y="820.18" width="35" height="35"/><rect x="347.45" y="820.18" width="35" height="35"/><rect x="382.45" y="820.18" width="35" height="35"/><rect x="487.45" y="820.18" width="35" height="35"/><rect x="557.45" y="820.18" width="35" height="35"/><rect x="627.45" y="820.18" width="35" height="35"/><rect x="732.45" y="820.18" width="35" height="35"/><rect x="802.45" y="820.18" width="35" height="35"/><rect x="837.45" y="820.18" width="35" height="35"/><rect x="942.45" y="820.18" width="35" height="35"/><rect x="977.45" y="820.18" width="35" height="35"/><rect x="1012.45" y="820.18" width="35" height="35"/><rect x="1117.45" y="820.18" width="35" height="35"/><rect x="1222.45" y="820.18" width="35" height="35"/><rect x="382.45" y="855.18" width="35" height="35"/><rect x="417.45" y="855.18" width="35" height="35"/><rect x="452.45" y="855.18" width="35" height="35"/><rect x="487.45" y="855.18" width="35" height="35"/><rect x="522.45" y="855.18" width="35" height="35"/><rect x="662.45" y="855.18" width="35" height="35"/><rect x="697.45" y="855.18" width="35" height="35"/><rect x="837.45" y="855.18" width="35" height="35"/><rect x="872.45" y="855.18" width="35" height="35"/><rect x="942.45" y="855.18" width="35" height="35"/><rect x="977.45" y="855.18" width="35" height="35"/><rect x="1012.45" y="855.18" width="35" height="35"/><rect x="1047.45" y="855.18" width="35" height="35"/><rect x="1082.45" y="855.18" width="35" height="35"/><rect x="1117.45" y="855.18" width="35" height="35"/><rect x="1187.45" y="855.18" width="35" height="35"/><rect x="1222.45" y="855.18" width="35" height="35"/><rect x="347.45" y="890.18" width="35" height="35"/><rect x="382.45" y="890.18" width="35" height="35"/><rect x="487.45" y="890.18" width="35" height="35"/><rect x="592.45" y="890.18" width="35" height="35"/><rect x="627.45" y="890.18" width="35" height="35"/><rect x="662.45" y="890.18" width="35" height="35"/><rect x="767.45" y="890.18" width="35" height="35"/><rect x="837.45" y="890.18" width="35" height="35"/><rect x="872.45" y="890.18" width="35" height="35"/><rect x="1117.45" y="890.18" width="35" height="35"/><rect x="1187.45" y="890.18" width="35" height="35"/><rect x="277.45" y="925.18" width="35" height="35"/><rect x="312.45" y="925.18" width="35" height="35"/><rect x="347.45" y="925.18" width="35" height="35"/><rect x="382.45" y="925.18" width="35" height="35"/><rect x="452.45" y="925.18" width="35" height="35"/><rect x="557.45" y="925.18" width="35" height="35"/><rect x="662.45" y="925.18" width="35" height="35"/><rect x="837.45" y="925.18" width="35" height="35"/><rect x="977.45" y="925.18" width="35" height="35"/><rect x="1012.45" y="925.18" width="35" height="35"/><rect x="1117.45" y="925.18" width="35" height="35"/><rect x="1187.45" y="925.18" width="35" height="35"/><rect x="1222.45" y="925.18" width="35" height="35"/><rect x="277.45" y="960.18" width="35" height="35"/><rect x="417.45" y="960.18" width="35" height="35"/><rect x="487.45" y="960.18" width="35" height="35"/><rect x="522.45" y="960.18" width="35" height="35"/><rect x="627.45" y="960.18" width="35" height="35"/><rect x="662.45" y="960.18" width="35" height="35"/><rect x="697.45" y="960.18" width="35" height="35"/><rect x="837.45" y="960.18" width="35" height="35"/><rect x="942.45" y="960.18" width="35" height="35"/><rect x="977.45" y="960.18" width="35" height="35"/><rect x="1012.45" y="960.18" width="35" height="35"/><rect x="1117.45" y="960.18" width="35" height="35"/><rect x="1152.45" y="960.18" width="35" height="35"/><rect x="1222.45" y="960.18" width="35" height="35"/><rect x="242.45" y="995.18" width="35" height="35"/><rect x="452.45" y="995.18" width="35" height="35"/><rect x="557.45" y="995.18" width="35" height="35"/><rect x="592.45" y="995.18" width="35" height="35"/><rect x="732.45" y="995.18" width="35" height="35"/><rect x="802.45" y="995.18" width="35" height="35"/><rect x="1012.45" y="995.18" width="35" height="35"/><rect x="1082.45" y="995.18" width="35" height="35"/><rect x="1187.45" y="995.18" width="35" height="35"/><rect x="1222.45" y="995.18" width="35" height="35"/><rect x="277.45" y="1030.18" width="35" height="35"/><rect x="312.45" y="1030.18" width="35" height="35"/><rect x="382.45" y="1030.18" width="35" height="35"/><rect x="417.45" y="1030.18" width="35" height="35"/><rect x="592.45" y="1030.18" width="35" height="35"/><rect x="662.45" y="1030.18" width="35" height="35"/><rect x="697.45" y="1030.18" width="35" height="35"/><rect x="732.45" y="1030.18" width="35" height="35"/><rect x="837.45" y="1030.18" width="35" height="35"/><rect x="872.45" y="1030.18" width="35" height="35"/><rect x="907.45" y="1030.18" width="35" height="35"/><rect x="977.45" y="1030.18" width="35" height="35"/><rect x="1012.45" y="1030.18" width="35" height="35"/><rect x="1047.45" y="1030.18" width="35" height="35"/><rect x="1117.45" y="1030.18" width="35" height="35"/><rect x="1187.45" y="1030.18" width="35" height="35"/><rect x="242.45" y="1065.18" width="35" height="35"/><rect x="347.45" y="1065.18" width="35" height="35"/><rect x="382.45" y="1065.18" width="35" height="35"/><rect x="452.45" y="1065.18" width="35" height="35"/><rect x="487.45" y="1065.18" width="35" height="35"/><rect x="522.45" y="1065.18" width="35" height="35"/><rect x="557.45" y="1065.18" width="35" height="35"/><rect x="627.45" y="1065.18" width="35" height="35"/><rect x="732.45" y="1065.18" width="35" height="35"/><rect x="767.45" y="1065.18" width="35" height="35"/><rect x="802.45" y="1065.18" width="35" height="35"/><rect x="837.45" y="1065.18" width="35" height="35"/><rect x="942.45" y="1065.18" width="35" height="35"/><rect x="977.45" y="1065.18" width="35" height="35"/><rect x="1012.45" y="1065.18" width="35" height="35"/><rect x="1047.45" y="1065.18" width="35" height="35"/><rect x="1082.45" y="1065.18" width="35" height="35"/><rect x="522.45" y="1100.18" width="35" height="35"/><rect x="557.45" y="1100.18" width="35" height="35"/><rect x="732.45" y="1100.18" width="35" height="35"/><rect x="767.45" y="1100.18" width="35" height="35"/><rect x="802.45" y="1100.18" width="35" height="35"/><rect x="837.45" y="1100.18" width="35" height="35"/><rect x="872.45" y="1100.18" width="35" height="35"/><rect x="907.45" y="1100.18" width="35" height="35"/><rect x="942.45" y="1100.18" width="35" height="35"/><rect x="1082.45" y="1100.18" width="35" height="35"/><rect x="1152.45" y="1100.18" width="35" height="35"/><rect x="1187.45" y="1100.18" width="35" height="35"/><rect x="1222.45" y="1100.18" width="35" height="35"/><rect x="557.45" y="1135.18" width="35" height="35"/><rect x="592.45" y="1135.18" width="35" height="35"/><rect x="662.45" y="1135.18" width="35" height="35"/><rect x="697.45" y="1135.18" width="35" height="35"/><rect x="802.45" y="1135.18" width="35" height="35"/><rect x="837.45" y="1135.18" width="35" height="35"/><rect x="872.45" y="1135.18" width="35" height="35"/><rect x="907.45" y="1135.18" width="35" height="35"/><rect x="942.45" y="1135.18" width="35" height="35"/><rect x="1012.45" y="1135.18" width="35" height="35"/><rect x="1082.45" y="1135.18" width="35" height="35"/><rect x="1117.45" y="1135.18" width="35" height="35"/><rect x="1187.45" y="1135.18" width="35" height="35"/><rect x="1222.45" y="1135.18" width="35" height="35"/><rect x="592.45" y="1170.18" width="35" height="35"/><rect x="662.45" y="1170.18" width="35" height="35"/><rect x="767.45" y="1170.18" width="35" height="35"/><rect x="837.45" y="1170.18" width="35" height="35"/><rect x="942.45" y="1170.18" width="35" height="35"/><rect x="1082.45" y="1170.18" width="35" height="35"/><rect x="1117.45" y="1170.18" width="35" height="35"/><rect x="1222.45" y="1170.18" width="35" height="35"/><rect x="522.45" y="1205.18" width="35" height="35"/><rect x="627.45" y="1205.18" width="35" height="35"/><rect x="662.45" y="1205.18" width="35" height="35"/><rect x="767.45" y="1205.18" width="35" height="35"/><rect x="837.45" y="1205.18" width="35" height="35"/><rect x="942.45" y="1205.18" width="35" height="35"/><rect x="977.45" y="1205.18" width="35" height="35"/><rect x="1012.45" y="1205.18" width="35" height="35"/><rect x="1047.45" y="1205.18" width="35" height="35"/><rect x="1082.45" y="1205.18" width="35" height="35"/><rect x="1222.45" y="1205.18" width="35" height="35"/><rect x="557.45" y="1240.18" width="35" height="35"/><rect x="592.45" y="1240.18" width="35" height="35"/><rect x="627.45" y="1240.18" width="35" height="35"/><rect x="662.45" y="1240.18" width="35" height="35"/><rect x="697.45" y="1240.18" width="35" height="35"/><rect x="767.45" y="1240.18" width="35" height="35"/><rect x="802.45" y="1240.18" width="35" height="35"/><rect x="837.45" y="1240.18" width="35" height="35"/><rect x="872.45" y="1240.18" width="35" height="35"/><rect x="907.45" y="1240.18" width="35" height="35"/><rect x="942.45" y="1240.18" width="35" height="35"/><rect x="1082.45" y="1240.18" width="35" height="35"/><rect x="1152.45" y="1240.18" width="35" height="35"/><rect x="1187.45" y="1240.18" width="35" height="35"/><rect x="1222.45" y="1240.18" width="35" height="35"/><rect x="522.45" y="1275.18" width="35" height="35"/><rect x="627.45" y="1275.18" width="35" height="35"/><rect x="662.45" y="1275.18" width="35" height="35"/><rect x="697.45" y="1275.18" width="35" height="35"/><rect x="907.45" y="1275.18" width="35" height="35"/><rect x="1047.45" y="1275.18" width="35" height="35"/><rect x="1082.45" y="1275.18" width="35" height="35"/><rect x="1117.45" y="1275.18" width="35" height="35"/><rect x="1222.45" y="1275.18" width="35" height="35"/><rect x="557.45" y="1310.18" width="35" height="35"/><rect x="592.45" y="1310.18" width="35" height="35"/><rect x="627.45" y="1310.18" width="35" height="35"/><rect x="662.45" y="1310.18" width="35" height="35"/><rect x="732.45" y="1310.18" width="35" height="35"/><rect x="802.45" y="1310.18" width="35" height="35"/><rect x="837.45" y="1310.18" width="35" height="35"/><rect x="907.45" y="1310.18" width="35" height="35"/><rect x="942.45" y="1310.18" width="35" height="35"/><rect x="977.45" y="1310.18" width="35" height="35"/><rect x="1012.45" y="1310.18" width="35" height="35"/><rect x="1082.45" y="1310.18" width="35" height="35"/><rect x="1187.45" y="1310.18" width="35" height="35"/><rect x="522.45" y="1345.18" width="35" height="35"/><rect x="557.45" y="1345.18" width="35" height="35"/><rect x="662.45" y="1345.18" width="35" height="35"/><rect x="732.45" y="1345.18" width="35" height="35"/><rect x="767.45" y="1345.18" width="35" height="35"/><rect x="802.45" y="1345.18" width="35" height="35"/><rect x="837.45" y="1345.18" width="35" height="35"/><rect x="872.45" y="1345.18" width="35" height="35"/><rect x="907.45" y="1345.18" width="35" height="35"/><rect x="942.45" y="1345.18" width="35" height="35"/><rect x="977.45" y="1345.18" width="35" height="35"/><rect x="1012.45" y="1345.18" width="35" height="35"/><rect x="1047.45" y="1345.18" width="35" height="35"/><rect x="1187.45" y="1345.18" width="35" height="35"/><rect x="1222.45" y="1345.18" width="35" height="35"/><rect class="cls-2" x="279.2" y="401.93" width="171.5" height="171.5"/><path d="M450.7,365.18H242.45v245h245v-245Zm0,208.25H279.2V401.93H450.7Z"/><rect class="cls-2" x="1049.2" y="401.93" width="171.5" height="171.5"/><path d="M1220.7,365.18H1012.45v245h245v-245Zm0,208.25H1049.2V401.93h171.5Z"/><rect class="cls-2" x="279.2" y="1171.93" width="171.5" height="171.5"/><path d="M450.7,1135.18H242.45v245h245v-245Zm0,208.25H279.2v-171.5H450.7Z"/><rect x="312.45" y="435.18" width="105" height="105"/><rect x="1082.45" y="435.18" width="105" height="105"/><rect x="312.45" y="1205.18" width="105" height="105"/></g><g id="Capa_2" data-name="Capa 2"><rect class="cls-3" x="105.29" y="203.39" width="1268.13" height="1268.13" rx="54.97"/><rect class="cls-1" x="43.17" y="169.86" width="1234.25" height="112.35"/><path id="path4109" class="cls-1" d="M1222.45,347.27c3.2-3.1,6.36-6.23,9.54-9.36l1.34-1.31,1.38,1.27c3.25,3,6.44,6.17,9.63,9.31,32.18-31.84,64.09-63.94,96.11-95.93l1.37-1.38,1.4,1.36c2.68,2.63,5.38,5.28,8.12,7.88l1.49,1.41-1.47,1.43c-3.18,3.08-6.28,6.23-9.33,9.4,10.77,10.95,21.59,21.88,32.63,32.56,10.8-10.84,21.65-21.62,32.45-32.45-3.09-3.21-6.13-6.55-9.54-9.51l-1.87-1.62,2-1.46c3.58-2.67,6.44-6.14,9.56-9.28-2.85-3.16-5.85-6.22-8.88-9.26l-1.29-1.29,1.19-1.39c6.18-7.2,13.14-13.66,19.75-20.49-3-3.25-6.08-6.44-9.19-9.61l-1.34-1.38,1.34-1.37c6.66-6.76,13.38-13.45,20-20.27-3.1-3.2-6.12-6.53-9.49-9.52l-1.69-1.51,1.71-1.47c7.23-6.17,13.53-13.39,20.31-20.07q-4.52-4.69-9.08-9.33l-1.38-1.37,1.36-1.4c10.22-10.49,20.66-20.79,30.88-31.3-17.63-18.14-35.5-36.06-53.41-53.93-18.34-18.29-36.5-36.75-55.26-54.63-10,10.63-21.29,20-31.19,30.78l-1.43,1.53-1.45-1.51c-3-3.16-6.12-6.18-9.27-9.14-10.39,10.16-20.7,20.44-31,30.71l-1.27,1.27-1.38-1.13a130.9,130.9,0,0,1-9.73-9.14c-11.58,11.43-22.87,23.15-34.73,34.31l0,0,0,0C1217.81,92,1203.7,105.53,1190,119.53c3.13,3.08,6.19,6.21,9.22,9.33l1.33,1.36-1.31,1.38c-3,3.11-6,6.22-9.14,9.24,3.09,3.27,6.36,6.34,9.33,9.68l1.15,1.29-1.13,1.3c-3,3.4-6.26,6.49-9.43,9.75,6.72,6.78,13.52,13.46,20.15,20.3l1.35,1.37-1.35,1.38c-3,3.1-6,6.18-9.1,9.21,9.81,10.9,20.54,20.92,30.78,31.4l1.3,1.34-1.25,1.36q-4.5,4.92-9.26,9.65c6.7,6.76,13.49,13.44,20.07,20.31l1.31,1.38-1.33,1.36c-13.8,14.07-27.82,27.93-41.71,41.92,1.78,1.81,3.56,3.62,5.36,5.42q2,2,4,4l1.45,1.41-1.45,1.42a123.39,123.39,0,0,0-9.31,9.83q10.73,10.65,21.36,21.36Z"/><path id="path3016" class="cls-4" d="M1222.46,347.28q-10.62-10.74-21.36-21.37a134.45,134.45,0,0,1,10.48-11c7.31,7.17,14.45,14.49,21.79,21.64C1229.73,340.13,1226.12,343.73,1222.46,347.28Z"/><path id="path3018" class="cls-4" d="M1244.34,347.19c-3.62-3.58-7.22-7.19-11-10.64q59.72-59.73,119.42-119.48,5.57,5.31,10.89,10.87-5.25,5.46-10.69,10.73c3.47,3.75,7.1,7.33,10.72,10.92-3.53,3.76-7.14,7.44-10.93,10.94-3.73-3.47-7.29-7.11-11-10.66-32.48,32.45-64.85,65-97.49,97.32Z"/><path id="path3020" class="cls-4" d="M1211.79,314.62c-3.64-3.54-7.21-7.16-10.77-10.78,14.35-14.45,28.85-28.75,43.09-43.3-7-7.37-14.28-14.45-21.43-21.67,3.6-3.59,7.18-7.19,10.57-11-10.64-11-21.9-21.38-32.14-32.76q5.33-5.19,10.47-10.58c-7.06-7.33-14.35-14.45-21.53-21.68,3.56-3.66,7.42-7.05,10.63-11-3.27-3.89-7-7.29-10.53-11,3.57-3.46,7.06-7,10.48-10.61q-5.22-5.42-10.58-10.72c13.67-14,27.79-27.58,41.24-41.8,11.87-11.17,23.19-22.91,34.79-34.35a115.87,115.87,0,0,0,11.08,10.29c10.72-10.7,21.44-21.4,32.26-32,3.67,3.45,7.35,6.89,10.73,10.62-10.49,11.29-21.59,22-32.59,32.81q-5.32-5.41-10.74-10.75-38,38-76,75.9,5.3,5.44,10.73,10.74c-3.32,3.72-7.09,7-10.32,10.83,2.87,4.24,6.91,7.45,10.48,11,10.94-10.78,21.6-21.84,32.68-32.49L1255.05,141c-14.24,14.73-29,29-43.38,43.54q10.83,11,21.78,21.78c10.85-10.85,21.59-21.82,32.56-32.54q5.52,5.29,10.79,10.78-21.6,21.81-43.51,43.33c7.23,7.3,14.48,14.57,21.84,21.76,14.53-14.39,28.86-29,43.37-43.38q5.61,5.3,10.92,10.9-48.76,48.76-97.63,97.46Z"/><path id="path3026" class="cls-4" d="M1374.65,303.91c-11-10.68-21.85-21.6-32.62-32.56,3.52-3.67,7-7.33,10.75-10.82,7.38,7,14.46,14.37,21.71,21.51,7.43-6.9,14-14.74,21.63-21.42,4,3.21,7.42,7.14,11,10.85C1396.31,282.31,1385.45,293.07,1374.65,303.91Z"/><path id="path3030" class="cls-4" d="M1396.07,260.08c-4-2.95-7.37-6.69-10.78-10.3,3.54-3.7,7.16-7.33,10.82-10.93-3.6-3.64-7.23-7.26-10.81-10.93,7.14-7.31,14.44-14.44,21.61-21.7q-5.39-5.34-10.71-10.78c7.29-7.19,14.07-15,22-21.47,3.85,3.21,7.14,7,10.61,10.57-7,7.27-14.22,14.41-21.31,21.63,3.56,3.61,7.08,7.25,10.52,11-7,7.24-14.5,14-21,21.79,3.48,3.45,6.89,7,10.17,10.63-3.6,3.63-6.79,7.77-11.17,10.5Z"/><path id="path3038" class="cls-4" d="M1417.77,173.42c-3.82-3.26-7.22-7-10.76-10.57,7.11-7.3,14.41-14.42,21.58-21.63-3.62-3.6-7.25-7.23-10.75-11,7.14-7.27,14.48-14.35,21.58-21.66q-43.22-43.42-86.6-86.69c-7.32,7.1-14.4,14.45-21.69,21.6-3.75-3.65-7.49-7.3-11-11.2,10.23-11.4,22.1-21.16,32.62-32.29,18.76,17.88,36.91,36.35,55.25,54.64,17.91,17.87,35.78,35.78,53.41,53.92-10.67,11-21.57,21.71-32.22,32.68,3.52,3.53,7,7.12,10.46,10.72-7.28,7.17-14,15-21.9,21.46Z"/><text class="cls-5" transform="translate(58.97 210.14)">¡Hazme Click!</text><line class="cls-6" x1="43.17" y1="269.31" x2="1049.2" y2="269.31"/></g></svg>