<?xml version="1.0" encoding="utf-8"?>
<!-- Generator: Adobe Illustrator 23.0.5, SVG Export Plug-In . SVG Version: 6.00 Build 0)  -->
<svg version="1.1" xmlns="http://www.w3.org/2000/svg" xmlns:xlink="http://www.w3.org/1999/xlink" x="0px" y="0px"
	 viewBox="0 0 1499.9 1499.9" style="enable-background:new 0 0 1499.9 1499.9;" xml:space="preserve">
<style type="text/css">
	.st0{fill:#FFFFFF;}
	.st1{fill:none;}
	.st2{fill:none;stroke:#4169E1;stroke-width:50;stroke-linecap:round;stroke-miterlimit:10;stroke-dasharray:99.5611,99.5611;}
	.st3{fill:#1C1C1C;}
	.st4{font-family:'Poppins-BlackItalic';}
	.st5{font-size:145px;}
	.st6{fill:none;stroke:#FFFFFF;stroke-width:20;stroke-linecap:round;stroke-miterlimit:10;}
</style>
<g id="Layer_1">
	<rect x="206.7" y="331.1" class="st0" width="1091.8" height="1076.4"/>
	<g transform="translate(70,70)">
		<g transform="translate(490,0) scale(0.35,0.35)">
			<g transform="">
				<rect x="492.7" y="843.4" width="100" height="100"/>
			</g>
		</g>
		<g transform="translate(630,0) scale(0.35,0.35)">
			<g transform="">
				<rect x="492.7" y="843.4" width="100" height="100"/>
			</g>
		</g>
		<g transform="translate(665,0) scale(0.35,0.35)">
			<g transform="">
				<rect x="492.7" y="843.4" width="100" height="100"/>
			</g>
		</g>
		<g transform="translate(280,35) scale(0.35,0.35)">
			<g transform="">
				<rect x="492.7" y="843.4" width="100" height="100"/>
			</g>
		</g>
		<g transform="translate(315,35) scale(0.35,0.35)">
			<g transform="">
				<rect x="492.7" y="843.4" width="100" height="100"/>
			</g>
		</g>
		<g transform="translate(385,35) scale(0.35,0.35)">
			<g transform="">
				<rect x="492.7" y="843.4" width="100" height="100"/>
			</g>
		</g>
		<g transform="translate(455,35) scale(0.35,0.35)">
			<g transform="">
				<rect x="492.7" y="843.4" width="100" height="100"/>
			</g>
		</g>
		<g transform="translate(595,35) scale(0.35,0.35)">
			<g transform="">
				<rect x="492.7" y="843.4" width="100" height="100"/>
			</g>
		</g>
		<g transform="translate(630,35) scale(0.35,0.35)">
			<g transform="">
				<rect x="492.7" y="843.4" width="100" height="100"/>
			</g>
		</g>
		<g transform="translate(665,35) scale(0.35,0.35)">
			<g transform="">
				<rect x="492.7" y="843.4" width="100" height="100"/>
			</g>
		</g>
		<g transform="translate(385,70) scale(0.35,0.35)">
			<g transform="">
				<rect x="492.7" y="843.4" width="100" height="100"/>
			</g>
		</g>
		<g transform="translate(525,70) scale(0.35,0.35)">
			<g transform="">
				<rect x="492.7" y="843.4" width="100" height="100"/>
			</g>
		</g>
		<g transform="translate(665,70) scale(0.35,0.35)">
			<g transform="">
				<rect x="492.7" y="843.4" width="100" height="100"/>
			</g>
		</g>
		<g transform="translate(315,105) scale(0.35,0.35)">
			<g transform="">
				<rect x="492.7" y="843.4" width="100" height="100"/>
			</g>
		</g>
		<g transform="translate(350,105) scale(0.35,0.35)">
			<g transform="">
				<rect x="492.7" y="843.4" width="100" height="100"/>
			</g>
		</g>
		<g transform="translate(420,105) scale(0.35,0.35)">
			<g transform="">
				<rect x="492.7" y="843.4" width="100" height="100"/>
			</g>
		</g>
		<g transform="translate(455,105) scale(0.35,0.35)">
			<g transform="">
				<rect x="492.7" y="843.4" width="100" height="100"/>
			</g>
		</g>
		<g transform="translate(630,105) scale(0.35,0.35)">
			<g transform="">
				<rect x="492.7" y="843.4" width="100" height="100"/>
			</g>
		</g>
		<g transform="translate(280,140) scale(0.35,0.35)">
			<g transform="">
				<rect x="492.7" y="843.4" width="100" height="100"/>
			</g>
		</g>
		<g transform="translate(315,140) scale(0.35,0.35)">
			<g transform="">
				<rect x="492.7" y="843.4" width="100" height="100"/>
			</g>
		</g>
		<g transform="translate(420,140) scale(0.35,0.35)">
			<g transform="">
				<rect x="492.7" y="843.4" width="100" height="100"/>
			</g>
		</g>
		<g transform="translate(455,140) scale(0.35,0.35)">
			<g transform="">
				<rect x="492.7" y="843.4" width="100" height="100"/>
			</g>
		</g>
		<g transform="translate(560,140) scale(0.35,0.35)">
			<g transform="">
				<rect x="492.7" y="843.4" width="100" height="100"/>
			</g>
		</g>
		<g transform="translate(665,140) scale(0.35,0.35)">
			<g transform="">
				<rect x="492.7" y="843.4" width="100" height="100"/>
			</g>
		</g>
		<g transform="translate(350,175) scale(0.35,0.35)">
			<g transform="">
				<rect x="492.7" y="843.4" width="100" height="100"/>
			</g>
		</g>
		<g transform="translate(420,175) scale(0.35,0.35)">
			<g transform="">
				<rect x="492.7" y="843.4" width="100" height="100"/>
			</g>
		</g>
		<g transform="translate(490,175) scale(0.35,0.35)">
			<g transform="">
				<rect x="492.7" y="843.4" width="100" height="100"/>
			</g>
		</g>
		<g transform="translate(525,175) scale(0.35,0.35)">
			<g transform="">
				<rect x="492.7" y="843.4" width="100" height="100"/>
			</g>
		</g>
		<g transform="translate(560,175) scale(0.35,0.35)">
			<g transform="">
				<rect x="492.7" y="843.4" width="100" height="100"/>
			</g>
		</g>
		<g transform="translate(595,175) scale(0.35,0.35)">
			<g transform="">
				<rect x="492.7" y="843.4" width="100" height="100"/>
			</g>
		</g>
		<g transform="translate(630,175) scale(0.35,0.35)">
			<g transform="">
				<rect x="492.7" y="843.4" width="100" height="100"/>
			</g>
		</g>
		<g transform="translate(665,175) scale(0.35,0.35)">
			<g transform="">
				<rect x="492.7" y="843.4" width="100" height="100"/>
			</g>
		</g>
		<g transform="translate(280,210) scale(0.35,0.35)">
			<g transform="">
				<rect x="492.7" y="843.4" width="100" height="100"/>
			</g>
		</g>
		<g transform="translate(350,210) scale(0.35,0.35)">
			<g transform="">
				<rect x="492.7" y="843.4" width="100" height="100"/>
			</g>
		</g>
		<g transform="translate(420,210) scale(0.35,0.35)">
			<g transform="">
				<rect x="492.7" y="843.4" width="100" height="100"/>
			</g>
		</g>
		<g transform="translate(490,210) scale(0.35,0.35)">
			<g transform="">
				<rect x="492.7" y="843.4" width="100" height="100"/>
			</g>
		</g>
		<g transform="translate(560,210) scale(0.35,0.35)">
			<g transform="">
				<rect x="492.7" y="843.4" width="100" height="100"/>
			</g>
		</g>
		<g transform="translate(630,210) scale(0.35,0.35)">
			<g transform="">
				<rect x="492.7" y="843.4" width="100" height="100"/>
			</g>
		</g>
		<g transform="translate(700,210) scale(0.35,0.35)">
			<g transform="">
				<rect x="492.7" y="843.4" width="100" height="100"/>
			</g>
		</g>
		<g transform="translate(315,245) scale(0.35,0.35)">
			<g transform="">
				<rect x="492.7" y="843.4" width="100" height="100"/>
			</g>
		</g>
		<g transform="translate(350,245) scale(0.35,0.35)">
			<g transform="">
				<rect x="492.7" y="843.4" width="100" height="100"/>
			</g>
		</g>
		<g transform="translate(385,245) scale(0.35,0.35)">
			<g transform="">
				<rect x="492.7" y="843.4" width="100" height="100"/>
			</g>
		</g>
		<g transform="translate(525,245) scale(0.35,0.35)">
			<g transform="">
				<rect x="492.7" y="843.4" width="100" height="100"/>
			</g>
		</g>
		<g transform="translate(560,245) scale(0.35,0.35)">
			<g transform="">
				<rect x="492.7" y="843.4" width="100" height="100"/>
			</g>
		</g>
		<g transform="translate(595,245) scale(0.35,0.35)">
			<g transform="">
				<rect x="492.7" y="843.4" width="100" height="100"/>
			</g>
		</g>
		<g transform="translate(700,245) scale(0.35,0.35)">
			<g transform="">
				<rect x="492.7" y="843.4" width="100" height="100"/>
			</g>
		</g>
		<g transform="translate(0,280) scale(0.35,0.35)">
			<g transform="">
				<rect x="492.7" y="843.4" width="100" height="100"/>
			</g>
		</g>
		<g transform="translate(70,280) scale(0.35,0.35)">
			<g transform="">
				<rect x="492.7" y="843.4" width="100" height="100"/>
			</g>
		</g>
		<g transform="translate(140,280) scale(0.35,0.35)">
			<g transform="">
				<rect x="492.7" y="843.4" width="100" height="100"/>
			</g>
		</g>
		<g transform="translate(210,280) scale(0.35,0.35)">
			<g transform="">
				<rect x="492.7" y="843.4" width="100" height="100"/>
			</g>
		</g>
		<g transform="translate(350,280) scale(0.35,0.35)">
			<g transform="">
				<rect x="492.7" y="843.4" width="100" height="100"/>
			</g>
		</g>
		<g transform="translate(420,280) scale(0.35,0.35)">
			<g transform="">
				<rect x="492.7" y="843.4" width="100" height="100"/>
			</g>
		</g>
		<g transform="translate(525,280) scale(0.35,0.35)">
			<g transform="">
				<rect x="492.7" y="843.4" width="100" height="100"/>
			</g>
		</g>
		<g transform="translate(560,280) scale(0.35,0.35)">
			<g transform="">
				<rect x="492.7" y="843.4" width="100" height="100"/>
			</g>
		</g>
		<g transform="translate(595,280) scale(0.35,0.35)">
			<g transform="">
				<rect x="492.7" y="843.4" width="100" height="100"/>
			</g>
		</g>
		<g transform="translate(630,280) scale(0.35,0.35)">
			<g transform="">
				<rect x="492.7" y="843.4" width="100" height="100"/>
			</g>
		</g>
		<g transform="translate(665,280) scale(0.35,0.35)">
			<g transform="">
				<rect x="492.7" y="843.4" width="100" height="100"/>
			</g>
		</g>
		<g transform="translate(700,280) scale(0.35,0.35)">
			<g transform="">
				<rect x="492.7" y="843.4" width="100" height="100"/>
			</g>
		</g>
		<g transform="translate(840,280) scale(0.35,0.35)">
			<g transform="">
				<rect x="492.7" y="843.4" width="100" height="100"/>
			</g>
		</g>
		<g transform="translate(945,280) scale(0.35,0.35)">
			<g transform="">
				<rect x="492.7" y="843.4" width="100" height="100"/>
			</g>
		</g>
		<g transform="translate(35,315) scale(0.35,0.35)">
			<g transform="">
				<rect x="492.7" y="843.4" width="100" height="100"/>
			</g>
		</g>
		<g transform="translate(140,315) scale(0.35,0.35)">
			<g transform="">
				<rect x="492.7" y="843.4" width="100" height="100"/>
			</g>
		</g>
		<g transform="translate(280,315) scale(0.35,0.35)">
			<g transform="">
				<rect x="492.7" y="843.4" width="100" height="100"/>
			</g>
		</g>
		<g transform="translate(350,315) scale(0.35,0.35)">
			<g transform="">
				<rect x="492.7" y="843.4" width="100" height="100"/>
			</g>
		</g>
		<g transform="translate(420,315) scale(0.35,0.35)">
			<g transform="">
				<rect x="492.7" y="843.4" width="100" height="100"/>
			</g>
		</g>
		<g transform="translate(455,315) scale(0.35,0.35)">
			<g transform="">
				<rect x="492.7" y="843.4" width="100" height="100"/>
			</g>
		</g>
		<g transform="translate(560,315) scale(0.35,0.35)">
			<g transform="">
				<rect x="492.7" y="843.4" width="100" height="100"/>
			</g>
		</g>
		<g transform="translate(770,315) scale(0.35,0.35)">
			<g transform="">
				<rect x="492.7" y="843.4" width="100" height="100"/>
			</g>
		</g>
		<g transform="translate(875,315) scale(0.35,0.35)">
			<g transform="">
				<rect x="492.7" y="843.4" width="100" height="100"/>
			</g>
		</g>
		<g transform="translate(980,315) scale(0.35,0.35)">
			<g transform="">
				<rect x="492.7" y="843.4" width="100" height="100"/>
			</g>
		</g>
		<g transform="translate(35,350) scale(0.35,0.35)">
			<g transform="">
				<rect x="492.7" y="843.4" width="100" height="100"/>
			</g>
		</g>
		<g transform="translate(105,350) scale(0.35,0.35)">
			<g transform="">
				<rect x="492.7" y="843.4" width="100" height="100"/>
			</g>
		</g>
		<g transform="translate(175,350) scale(0.35,0.35)">
			<g transform="">
				<rect x="492.7" y="843.4" width="100" height="100"/>
			</g>
		</g>
		<g transform="translate(210,350) scale(0.35,0.35)">
			<g transform="">
				<rect x="492.7" y="843.4" width="100" height="100"/>
			</g>
		</g>
		<g transform="translate(280,350) scale(0.35,0.35)">
			<g transform="">
				<rect x="492.7" y="843.4" width="100" height="100"/>
			</g>
		</g>
		<g transform="translate(490,350) scale(0.35,0.35)">
			<g transform="">
				<rect x="492.7" y="843.4" width="100" height="100"/>
			</g>
		</g>
		<g transform="translate(595,350) scale(0.35,0.35)">
			<g transform="">
				<rect x="492.7" y="843.4" width="100" height="100"/>
			</g>
		</g>
		<g transform="translate(735,350) scale(0.35,0.35)">
			<g transform="">
				<rect x="492.7" y="843.4" width="100" height="100"/>
			</g>
		</g>
		<g transform="translate(770,350) scale(0.35,0.35)">
			<g transform="">
				<rect x="492.7" y="843.4" width="100" height="100"/>
			</g>
		</g>
		<g transform="translate(910,350) scale(0.35,0.35)">
			<g transform="">
				<rect x="492.7" y="843.4" width="100" height="100"/>
			</g>
		</g>
		<g transform="translate(945,350) scale(0.35,0.35)">
			<g transform="">
				<rect x="492.7" y="843.4" width="100" height="100"/>
			</g>
		</g>
		<g transform="translate(980,350) scale(0.35,0.35)">
			<g transform="">
				<rect x="492.7" y="843.4" width="100" height="100"/>
			</g>
		</g>
		<g transform="translate(35,385) scale(0.35,0.35)">
			<g transform="">
				<rect x="492.7" y="843.4" width="100" height="100"/>
			</g>
		</g>
		<g transform="translate(70,385) scale(0.35,0.35)">
			<g transform="">
				<rect x="492.7" y="843.4" width="100" height="100"/>
			</g>
		</g>
		<g transform="translate(175,385) scale(0.35,0.35)">
			<g transform="">
				<rect x="492.7" y="843.4" width="100" height="100"/>
			</g>
		</g>
		<g transform="translate(245,385) scale(0.35,0.35)">
			<g transform="">
				<rect x="492.7" y="843.4" width="100" height="100"/>
			</g>
		</g>
		<g transform="translate(315,385) scale(0.35,0.35)">
			<g transform="">
				<rect x="492.7" y="843.4" width="100" height="100"/>
			</g>
		</g>
		<g transform="translate(385,385) scale(0.35,0.35)">
			<g transform="">
				<rect x="492.7" y="843.4" width="100" height="100"/>
			</g>
		</g>
		<g transform="translate(455,385) scale(0.35,0.35)">
			<g transform="">
				<rect x="492.7" y="843.4" width="100" height="100"/>
			</g>
		</g>
		<g transform="translate(490,385) scale(0.35,0.35)">
			<g transform="">
				<rect x="492.7" y="843.4" width="100" height="100"/>
			</g>
		</g>
		<g transform="translate(560,385) scale(0.35,0.35)">
			<g transform="">
				<rect x="492.7" y="843.4" width="100" height="100"/>
			</g>
		</g>
		<g transform="translate(595,385) scale(0.35,0.35)">
			<g transform="">
				<rect x="492.7" y="843.4" width="100" height="100"/>
			</g>
		</g>
		<g transform="translate(630,385) scale(0.35,0.35)">
			<g transform="">
				<rect x="492.7" y="843.4" width="100" height="100"/>
			</g>
		</g>
		<g transform="translate(770,385) scale(0.35,0.35)">
			<g transform="">
				<rect x="492.7" y="843.4" width="100" height="100"/>
			</g>
		</g>
		<g transform="translate(840,385) scale(0.35,0.35)">
			<g transform="">
				<rect x="492.7" y="843.4" width="100" height="100"/>
			</g>
		</g>
		<g transform="translate(945,385) scale(0.35,0.35)">
			<g transform="">
				<rect x="492.7" y="843.4" width="100" height="100"/>
			</g>
		</g>
		<g transform="translate(0,420) scale(0.35,0.35)">
			<g transform="">
				<rect x="492.7" y="843.4" width="100" height="100"/>
			</g>
		</g>
		<g transform="translate(70,420) scale(0.35,0.35)">
			<g transform="">
				<rect x="492.7" y="843.4" width="100" height="100"/>
			</g>
		</g>
		<g transform="translate(140,420) scale(0.35,0.35)">
			<g transform="">
				<rect x="492.7" y="843.4" width="100" height="100"/>
			</g>
		</g>
		<g transform="translate(210,420) scale(0.35,0.35)">
			<g transform="">
				<rect x="492.7" y="843.4" width="100" height="100"/>
			</g>
		</g>
		<g transform="translate(245,420) scale(0.35,0.35)">
			<g transform="">
				<rect x="492.7" y="843.4" width="100" height="100"/>
			</g>
		</g>
		<g transform="translate(315,420) scale(0.35,0.35)">
			<g transform="">
				<rect x="492.7" y="843.4" width="100" height="100"/>
			</g>
		</g>
		<g transform="translate(350,420) scale(0.35,0.35)">
			<g transform="">
				<rect x="492.7" y="843.4" width="100" height="100"/>
			</g>
		</g>
		<g transform="translate(490,420) scale(0.35,0.35)">
			<g transform="">
				<rect x="492.7" y="843.4" width="100" height="100"/>
			</g>
		</g>
		<g transform="translate(560,420) scale(0.35,0.35)">
			<g transform="">
				<rect x="492.7" y="843.4" width="100" height="100"/>
			</g>
		</g>
		<g transform="translate(595,420) scale(0.35,0.35)">
			<g transform="">
				<rect x="492.7" y="843.4" width="100" height="100"/>
			</g>
		</g>
		<g transform="translate(735,420) scale(0.35,0.35)">
			<g transform="">
				<rect x="492.7" y="843.4" width="100" height="100"/>
			</g>
		</g>
		<g transform="translate(770,420) scale(0.35,0.35)">
			<g transform="">
				<rect x="492.7" y="843.4" width="100" height="100"/>
			</g>
		</g>
		<g transform="translate(875,420) scale(0.35,0.35)">
			<g transform="">
				<rect x="492.7" y="843.4" width="100" height="100"/>
			</g>
		</g>
		<g transform="translate(945,420) scale(0.35,0.35)">
			<g transform="">
				<rect x="492.7" y="843.4" width="100" height="100"/>
			</g>
		</g>
		<g transform="translate(980,420) scale(0.35,0.35)">
			<g transform="">
				<rect x="492.7" y="843.4" width="100" height="100"/>
			</g>
		</g>
		<g transform="translate(35,455) scale(0.35,0.35)">
			<g transform="">
				<rect x="492.7" y="843.4" width="100" height="100"/>
			</g>
		</g>
		<g transform="translate(105,455) scale(0.35,0.35)">
			<g transform="">
				<rect x="492.7" y="843.4" width="100" height="100"/>
			</g>
		</g>
		<g transform="translate(140,455) scale(0.35,0.35)">
			<g transform="">
				<rect x="492.7" y="843.4" width="100" height="100"/>
			</g>
		</g>
		<g transform="translate(245,455) scale(0.35,0.35)">
			<g transform="">
				<rect x="492.7" y="843.4" width="100" height="100"/>
			</g>
		</g>
		<g transform="translate(315,455) scale(0.35,0.35)">
			<g transform="">
				<rect x="492.7" y="843.4" width="100" height="100"/>
			</g>
		</g>
		<g transform="translate(385,455) scale(0.35,0.35)">
			<g transform="">
				<rect x="492.7" y="843.4" width="100" height="100"/>
			</g>
		</g>
		<g transform="translate(490,455) scale(0.35,0.35)">
			<g transform="">
				<rect x="492.7" y="843.4" width="100" height="100"/>
			</g>
		</g>
		<g transform="translate(560,455) scale(0.35,0.35)">
			<g transform="">
				<rect x="492.7" y="843.4" width="100" height="100"/>
			</g>
		</g>
		<g transform="translate(595,455) scale(0.35,0.35)">
			<g transform="">
				<rect x="492.7" y="843.4" width="100" height="100"/>
			</g>
		</g>
		<g transform="translate(700,455) scale(0.35,0.35)">
			<g transform="">
				<rect x="492.7" y="843.4" width="100" height="100"/>
			</g>
		</g>
		<g transform="translate(735,455) scale(0.35,0.35)">
			<g transform="">
				<rect x="492.7" y="843.4" width="100" height="100"/>
			</g>
		</g>
		<g transform="translate(770,455) scale(0.35,0.35)">
			<g transform="">
				<rect x="492.7" y="843.4" width="100" height="100"/>
			</g>
		</g>
		<g transform="translate(875,455) scale(0.35,0.35)">
			<g transform="">
				<rect x="492.7" y="843.4" width="100" height="100"/>
			</g>
		</g>
		<g transform="translate(980,455) scale(0.35,0.35)">
			<g transform="">
				<rect x="492.7" y="843.4" width="100" height="100"/>
			</g>
		</g>
		<g transform="translate(140,490) scale(0.35,0.35)">
			<g transform="">
				<rect x="492.7" y="843.4" width="100" height="100"/>
			</g>
		</g>
		<g transform="translate(175,490) scale(0.35,0.35)">
			<g transform="">
				<rect x="492.7" y="843.4" width="100" height="100"/>
			</g>
		</g>
		<g transform="translate(210,490) scale(0.35,0.35)">
			<g transform="">
				<rect x="492.7" y="843.4" width="100" height="100"/>
			</g>
		</g>
		<g transform="translate(245,490) scale(0.35,0.35)">
			<g transform="">
				<rect x="492.7" y="843.4" width="100" height="100"/>
			</g>
		</g>
		<g transform="translate(280,490) scale(0.35,0.35)">
			<g transform="">
				<rect x="492.7" y="843.4" width="100" height="100"/>
			</g>
		</g>
		<g transform="translate(420,490) scale(0.35,0.35)">
			<g transform="">
				<rect x="492.7" y="843.4" width="100" height="100"/>
			</g>
		</g>
		<g transform="translate(455,490) scale(0.35,0.35)">
			<g transform="">
				<rect x="492.7" y="843.4" width="100" height="100"/>
			</g>
		</g>
		<g transform="translate(595,490) scale(0.35,0.35)">
			<g transform="">
				<rect x="492.7" y="843.4" width="100" height="100"/>
			</g>
		</g>
		<g transform="translate(630,490) scale(0.35,0.35)">
			<g transform="">
				<rect x="492.7" y="843.4" width="100" height="100"/>
			</g>
		</g>
		<g transform="translate(700,490) scale(0.35,0.35)">
			<g transform="">
				<rect x="492.7" y="843.4" width="100" height="100"/>
			</g>
		</g>
		<g transform="translate(735,490) scale(0.35,0.35)">
			<g transform="">
				<rect x="492.7" y="843.4" width="100" height="100"/>
			</g>
		</g>
		<g transform="translate(770,490) scale(0.35,0.35)">
			<g transform="">
				<rect x="492.7" y="843.4" width="100" height="100"/>
			</g>
		</g>
		<g transform="translate(805,490) scale(0.35,0.35)">
			<g transform="">
				<rect x="492.7" y="843.4" width="100" height="100"/>
			</g>
		</g>
		<g transform="translate(840,490) scale(0.35,0.35)">
			<g transform="">
				<rect x="492.7" y="843.4" width="100" height="100"/>
			</g>
		</g>
		<g transform="translate(875,490) scale(0.35,0.35)">
			<g transform="">
				<rect x="492.7" y="843.4" width="100" height="100"/>
			</g>
		</g>
		<g transform="translate(945,490) scale(0.35,0.35)">
			<g transform="">
				<rect x="492.7" y="843.4" width="100" height="100"/>
			</g>
		</g>
		<g transform="translate(980,490) scale(0.35,0.35)">
			<g transform="">
				<rect x="492.7" y="843.4" width="100" height="100"/>
			</g>
		</g>
		<g transform="translate(105,525) scale(0.35,0.35)">
			<g transform="">
				<rect x="492.7" y="843.4" width="100" height="100"/>
			</g>
		</g>
		<g transform="translate(140,525) scale(0.35,0.35)">
			<g transform="">
				<rect x="492.7" y="843.4" width="100" height="100"/>
			</g>
		</g>
		<g transform="translate(245,525) scale(0.35,0.35)">
			<g transform="">
				<rect x="492.7" y="843.4" width="100" height="100"/>
			</g>
		</g>
		<g transform="translate(350,525) scale(0.35,0.35)">
			<g transform="">
				<rect x="492.7" y="843.4" width="100" height="100"/>
			</g>
		</g>
		<g transform="translate(385,525) scale(0.35,0.35)">
			<g transform="">
				<rect x="492.7" y="843.4" width="100" height="100"/>
			</g>
		</g>
		<g transform="translate(420,525) scale(0.35,0.35)">
			<g transform="">
				<rect x="492.7" y="843.4" width="100" height="100"/>
			</g>
		</g>
		<g transform="translate(525,525) scale(0.35,0.35)">
			<g transform="">
				<rect x="492.7" y="843.4" width="100" height="100"/>
			</g>
		</g>
		<g transform="translate(595,525) scale(0.35,0.35)">
			<g transform="">
				<rect x="492.7" y="843.4" width="100" height="100"/>
			</g>
		</g>
		<g transform="translate(630,525) scale(0.35,0.35)">
			<g transform="">
				<rect x="492.7" y="843.4" width="100" height="100"/>
			</g>
		</g>
		<g transform="translate(875,525) scale(0.35,0.35)">
			<g transform="">
				<rect x="492.7" y="843.4" width="100" height="100"/>
			</g>
		</g>
		<g transform="translate(945,525) scale(0.35,0.35)">
			<g transform="">
				<rect x="492.7" y="843.4" width="100" height="100"/>
			</g>
		</g>
		<g transform="translate(35,560) scale(0.35,0.35)">
			<g transform="">
				<rect x="492.7" y="843.4" width="100" height="100"/>
			</g>
		</g>
		<g transform="translate(70,560) scale(0.35,0.35)">
			<g transform="">
				<rect x="492.7" y="843.4" width="100" height="100"/>
			</g>
		</g>
		<g transform="translate(105,560) scale(0.35,0.35)">
			<g transform="">
				<rect x="492.7" y="843.4" width="100" height="100"/>
			</g>
		</g>
		<g transform="translate(140,560) scale(0.35,0.35)">
			<g transform="">
				<rect x="492.7" y="843.4" width="100" height="100"/>
			</g>
		</g>
		<g transform="translate(210,560) scale(0.35,0.35)">
			<g transform="">
				<rect x="492.7" y="843.4" width="100" height="100"/>
			</g>
		</g>
		<g transform="translate(315,560) scale(0.35,0.35)">
			<g transform="">
				<rect x="492.7" y="843.4" width="100" height="100"/>
			</g>
		</g>
		<g transform="translate(420,560) scale(0.35,0.35)">
			<g transform="">
				<rect x="492.7" y="843.4" width="100" height="100"/>
			</g>
		</g>
		<g transform="translate(595,560) scale(0.35,0.35)">
			<g transform="">
				<rect x="492.7" y="843.4" width="100" height="100"/>
			</g>
		</g>
		<g transform="translate(735,560) scale(0.35,0.35)">
			<g transform="">
				<rect x="492.7" y="843.4" width="100" height="100"/>
			</g>
		</g>
		<g transform="translate(770,560) scale(0.35,0.35)">
			<g transform="">
				<rect x="492.7" y="843.4" width="100" height="100"/>
			</g>
		</g>
		<g transform="translate(875,560) scale(0.35,0.35)">
			<g transform="">
				<rect x="492.7" y="843.4" width="100" height="100"/>
			</g>
		</g>
		<g transform="translate(945,560) scale(0.35,0.35)">
			<g transform="">
				<rect x="492.7" y="843.4" width="100" height="100"/>
			</g>
		</g>
		<g transform="translate(980,560) scale(0.35,0.35)">
			<g transform="">
				<rect x="492.7" y="843.4" width="100" height="100"/>
			</g>
		</g>
		<g transform="translate(35,595) scale(0.35,0.35)">
			<g transform="">
				<rect x="492.7" y="843.4" width="100" height="100"/>
			</g>
		</g>
		<g transform="translate(175,595) scale(0.35,0.35)">
			<g transform="">
				<rect x="492.7" y="843.4" width="100" height="100"/>
			</g>
		</g>
		<g transform="translate(245,595) scale(0.35,0.35)">
			<g transform="">
				<rect x="492.7" y="843.4" width="100" height="100"/>
			</g>
		</g>
		<g transform="translate(280,595) scale(0.35,0.35)">
			<g transform="">
				<rect x="492.7" y="843.4" width="100" height="100"/>
			</g>
		</g>
		<g transform="translate(385,595) scale(0.35,0.35)">
			<g transform="">
				<rect x="492.7" y="843.4" width="100" height="100"/>
			</g>
		</g>
		<g transform="translate(420,595) scale(0.35,0.35)">
			<g transform="">
				<rect x="492.7" y="843.4" width="100" height="100"/>
			</g>
		</g>
		<g transform="translate(455,595) scale(0.35,0.35)">
			<g transform="">
				<rect x="492.7" y="843.4" width="100" height="100"/>
			</g>
		</g>
		<g transform="translate(595,595) scale(0.35,0.35)">
			<g transform="">
				<rect x="492.7" y="843.4" width="100" height="100"/>
			</g>
		</g>
		<g transform="translate(700,595) scale(0.35,0.35)">
			<g transform="">
				<rect x="492.7" y="843.4" width="100" height="100"/>
			</g>
		</g>
		<g transform="translate(735,595) scale(0.35,0.35)">
			<g transform="">
				<rect x="492.7" y="843.4" width="100" height="100"/>
			</g>
		</g>
		<g transform="translate(770,595) scale(0.35,0.35)">
			<g transform="">
				<rect x="492.7" y="843.4" width="100" height="100"/>
			</g>
		</g>
		<g transform="translate(875,595) scale(0.35,0.35)">
			<g transform="">
				<rect x="492.7" y="843.4" width="100" height="100"/>
			</g>
		</g>
		<g transform="translate(910,595) scale(0.35,0.35)">
			<g transform="">
				<rect x="492.7" y="843.4" width="100" height="100"/>
			</g>
		</g>
		<g transform="translate(980,595) scale(0.35,0.35)">
			<g transform="">
				<rect x="492.7" y="843.4" width="100" height="100"/>
			</g>
		</g>
		<g transform="translate(0,630) scale(0.35,0.35)">
			<g transform="">
				<rect x="492.7" y="843.4" width="100" height="100"/>
			</g>
		</g>
		<g transform="translate(210,630) scale(0.35,0.35)">
			<g transform="">
				<rect x="492.7" y="843.4" width="100" height="100"/>
			</g>
		</g>
		<g transform="translate(315,630) scale(0.35,0.35)">
			<g transform="">
				<rect x="492.7" y="843.4" width="100" height="100"/>
			</g>
		</g>
		<g transform="translate(350,630) scale(0.35,0.35)">
			<g transform="">
				<rect x="492.7" y="843.4" width="100" height="100"/>
			</g>
		</g>
		<g transform="translate(490,630) scale(0.35,0.35)">
			<g transform="">
				<rect x="492.7" y="843.4" width="100" height="100"/>
			</g>
		</g>
		<g transform="translate(560,630) scale(0.35,0.35)">
			<g transform="">
				<rect x="492.7" y="843.4" width="100" height="100"/>
			</g>
		</g>
		<g transform="translate(770,630) scale(0.35,0.35)">
			<g transform="">
				<rect x="492.7" y="843.4" width="100" height="100"/>
			</g>
		</g>
		<g transform="translate(840,630) scale(0.35,0.35)">
			<g transform="">
				<rect x="492.7" y="843.4" width="100" height="100"/>
			</g>
		</g>
		<g transform="translate(945,630) scale(0.35,0.35)">
			<g transform="">
				<rect x="492.7" y="843.4" width="100" height="100"/>
			</g>
		</g>
		<g transform="translate(980,630) scale(0.35,0.35)">
			<g transform="">
				<rect x="492.7" y="843.4" width="100" height="100"/>
			</g>
		</g>
		<g transform="translate(35,665) scale(0.35,0.35)">
			<g transform="">
				<rect x="492.7" y="843.4" width="100" height="100"/>
			</g>
		</g>
		<g transform="translate(70,665) scale(0.35,0.35)">
			<g transform="">
				<rect x="492.7" y="843.4" width="100" height="100"/>
			</g>
		</g>
		<g transform="translate(140,665) scale(0.35,0.35)">
			<g transform="">
				<rect x="492.7" y="843.4" width="100" height="100"/>
			</g>
		</g>
		<g transform="translate(175,665) scale(0.35,0.35)">
			<g transform="">
				<rect x="492.7" y="843.4" width="100" height="100"/>
			</g>
		</g>
		<g transform="translate(350,665) scale(0.35,0.35)">
			<g transform="">
				<rect x="492.7" y="843.4" width="100" height="100"/>
			</g>
		</g>
		<g transform="translate(420,665) scale(0.35,0.35)">
			<g transform="">
				<rect x="492.7" y="843.4" width="100" height="100"/>
			</g>
		</g>
		<g transform="translate(455,665) scale(0.35,0.35)">
			<g transform="">
				<rect x="492.7" y="843.4" width="100" height="100"/>
			</g>
		</g>
		<g transform="translate(490,665) scale(0.35,0.35)">
			<g transform="">
				<rect x="492.7" y="843.4" width="100" height="100"/>
			</g>
		</g>
		<g transform="translate(595,665) scale(0.35,0.35)">
			<g transform="">
				<rect x="492.7" y="843.4" width="100" height="100"/>
			</g>
		</g>
		<g transform="translate(630,665) scale(0.35,0.35)">
			<g transform="">
				<rect x="492.7" y="843.4" width="100" height="100"/>
			</g>
		</g>
		<g transform="translate(665,665) scale(0.35,0.35)">
			<g transform="">
				<rect x="492.7" y="843.4" width="100" height="100"/>
			</g>
		</g>
		<g transform="translate(735,665) scale(0.35,0.35)">
			<g transform="">
				<rect x="492.7" y="843.4" width="100" height="100"/>
			</g>
		</g>
		<g transform="translate(770,665) scale(0.35,0.35)">
			<g transform="">
				<rect x="492.7" y="843.4" width="100" height="100"/>
			</g>
		</g>
		<g transform="translate(805,665) scale(0.35,0.35)">
			<g transform="">
				<rect x="492.7" y="843.4" width="100" height="100"/>
			</g>
		</g>
		<g transform="translate(875,665) scale(0.35,0.35)">
			<g transform="">
				<rect x="492.7" y="843.4" width="100" height="100"/>
			</g>
		</g>
		<g transform="translate(945,665) scale(0.35,0.35)">
			<g transform="">
				<rect x="492.7" y="843.4" width="100" height="100"/>
			</g>
		</g>
		<g transform="translate(0,700) scale(0.35,0.35)">
			<g transform="">
				<rect x="492.7" y="843.4" width="100" height="100"/>
			</g>
		</g>
		<g transform="translate(105,700) scale(0.35,0.35)">
			<g transform="">
				<rect x="492.7" y="843.4" width="100" height="100"/>
			</g>
		</g>
		<g transform="translate(140,700) scale(0.35,0.35)">
			<g transform="">
				<rect x="492.7" y="843.4" width="100" height="100"/>
			</g>
		</g>
		<g transform="translate(210,700) scale(0.35,0.35)">
			<g transform="">
				<rect x="492.7" y="843.4" width="100" height="100"/>
			</g>
		</g>
		<g transform="translate(245,700) scale(0.35,0.35)">
			<g transform="">
				<rect x="492.7" y="843.4" width="100" height="100"/>
			</g>
		</g>
		<g transform="translate(280,700) scale(0.35,0.35)">
			<g transform="">
				<rect x="492.7" y="843.4" width="100" height="100"/>
			</g>
		</g>
		<g transform="translate(315,700) scale(0.35,0.35)">
			<g transform="">
				<rect x="492.7" y="843.4" width="100" height="100"/>
			</g>
		</g>
		<g transform="translate(385,700) scale(0.35,0.35)">
			<g transform="">
				<rect x="492.7" y="843.4" width="100" height="100"/>
			</g>
		</g>
		<g transform="translate(490,700) scale(0.35,0.35)">
			<g transform="">
				<rect x="492.7" y="843.4" width="100" height="100"/>
			</g>
		</g>
		<g transform="translate(525,700) scale(0.35,0.35)">
			<g transform="">
				<rect x="492.7" y="843.4" width="100" height="100"/>
			</g>
		</g>
		<g transform="translate(560,700) scale(0.35,0.35)">
			<g transform="">
				<rect x="492.7" y="843.4" width="100" height="100"/>
			</g>
		</g>
		<g transform="translate(595,700) scale(0.35,0.35)">
			<g transform="">
				<rect x="492.7" y="843.4" width="100" height="100"/>
			</g>
		</g>
		<g transform="translate(700,700) scale(0.35,0.35)">
			<g transform="">
				<rect x="492.7" y="843.4" width="100" height="100"/>
			</g>
		</g>
		<g transform="translate(735,700) scale(0.35,0.35)">
			<g transform="">
				<rect x="492.7" y="843.4" width="100" height="100"/>
			</g>
		</g>
		<g transform="translate(770,700) scale(0.35,0.35)">
			<g transform="">
				<rect x="492.7" y="843.4" width="100" height="100"/>
			</g>
		</g>
		<g transform="translate(805,700) scale(0.35,0.35)">
			<g transform="">
				<rect x="492.7" y="843.4" width="100" height="100"/>
			</g>
		</g>
		<g transform="translate(840,700) scale(0.35,0.35)">
			<g transform="">
				<rect x="492.7" y="843.4" width="100" height="100"/>
			</g>
		</g>
		<g transform="translate(280,735) scale(0.35,0.35)">
			<g transform="">
				<rect x="492.7" y="843.4" width="100" height="100"/>
			</g>
		</g>
		<g transform="translate(315,735) scale(0.35,0.35)">
			<g transform="">
				<rect x="492.7" y="843.4" width="100" height="100"/>
			</g>
		</g>
		<g transform="translate(490,735) scale(0.35,0.35)">
			<g transform="">
				<rect x="492.7" y="843.4" width="100" height="100"/>
			</g>
		</g>
		<g transform="translate(525,735) scale(0.35,0.35)">
			<g transform="">
				<rect x="492.7" y="843.4" width="100" height="100"/>
			</g>
		</g>
		<g transform="translate(560,735) scale(0.35,0.35)">
			<g transform="">
				<rect x="492.7" y="843.4" width="100" height="100"/>
			</g>
		</g>
		<g transform="translate(595,735) scale(0.35,0.35)">
			<g transform="">
				<rect x="492.7" y="843.4" width="100" height="100"/>
			</g>
		</g>
		<g transform="translate(630,735) scale(0.35,0.35)">
			<g transform="">
				<rect x="492.7" y="843.4" width="100" height="100"/>
			</g>
		</g>
		<g transform="translate(665,735) scale(0.35,0.35)">
			<g transform="">
				<rect x="492.7" y="843.4" width="100" height="100"/>
			</g>
		</g>
		<g transform="translate(700,735) scale(0.35,0.35)">
			<g transform="">
				<rect x="492.7" y="843.4" width="100" height="100"/>
			</g>
		</g>
		<g transform="translate(840,735) scale(0.35,0.35)">
			<g transform="">
				<rect x="492.7" y="843.4" width="100" height="100"/>
			</g>
		</g>
		<g transform="translate(910,735) scale(0.35,0.35)">
			<g transform="">
				<rect x="492.7" y="843.4" width="100" height="100"/>
			</g>
		</g>
		<g transform="translate(945,735) scale(0.35,0.35)">
			<g transform="">
				<rect x="492.7" y="843.4" width="100" height="100"/>
			</g>
		</g>
		<g transform="translate(980,735) scale(0.35,0.35)">
			<g transform="">
				<rect x="492.7" y="843.4" width="100" height="100"/>
			</g>
		</g>
		<g transform="translate(315,770) scale(0.35,0.35)">
			<g transform="">
				<rect x="492.7" y="843.4" width="100" height="100"/>
			</g>
		</g>
		<g transform="translate(350,770) scale(0.35,0.35)">
			<g transform="">
				<rect x="492.7" y="843.4" width="100" height="100"/>
			</g>
		</g>
		<g transform="translate(420,770) scale(0.35,0.35)">
			<g transform="">
				<rect x="492.7" y="843.4" width="100" height="100"/>
			</g>
		</g>
		<g transform="translate(455,770) scale(0.35,0.35)">
			<g transform="">
				<rect x="492.7" y="843.4" width="100" height="100"/>
			</g>
		</g>
		<g transform="translate(560,770) scale(0.35,0.35)">
			<g transform="">
				<rect x="492.7" y="843.4" width="100" height="100"/>
			</g>
		</g>
		<g transform="translate(595,770) scale(0.35,0.35)">
			<g transform="">
				<rect x="492.7" y="843.4" width="100" height="100"/>
			</g>
		</g>
		<g transform="translate(630,770) scale(0.35,0.35)">
			<g transform="">
				<rect x="492.7" y="843.4" width="100" height="100"/>
			</g>
		</g>
		<g transform="translate(665,770) scale(0.35,0.35)">
			<g transform="">
				<rect x="492.7" y="843.4" width="100" height="100"/>
			</g>
		</g>
		<g transform="translate(700,770) scale(0.35,0.35)">
			<g transform="">
				<rect x="492.7" y="843.4" width="100" height="100"/>
			</g>
		</g>
		<g transform="translate(770,770) scale(0.35,0.35)">
			<g transform="">
				<rect x="492.7" y="843.4" width="100" height="100"/>
			</g>
		</g>
		<g transform="translate(840,770) scale(0.35,0.35)">
			<g transform="">
				<rect x="492.7" y="843.4" width="100" height="100"/>
			</g>
		</g>
		<g transform="translate(875,770) scale(0.35,0.35)">
			<g transform="">
				<rect x="492.7" y="843.4" width="100" height="100"/>
			</g>
		</g>
		<g transform="translate(945,770) scale(0.35,0.35)">
			<g transform="">
				<rect x="492.7" y="843.4" width="100" height="100"/>
			</g>
		</g>
		<g transform="translate(980,770) scale(0.35,0.35)">
			<g transform="">
				<rect x="492.7" y="843.4" width="100" height="100"/>
			</g>
		</g>
		<g transform="translate(350,805) scale(0.35,0.35)">
			<g transform="">
				<rect x="492.7" y="843.4" width="100" height="100"/>
			</g>
		</g>
		<g transform="translate(420,805) scale(0.35,0.35)">
			<g transform="">
				<rect x="492.7" y="843.4" width="100" height="100"/>
			</g>
		</g>
		<g transform="translate(525,805) scale(0.35,0.35)">
			<g transform="">
				<rect x="492.7" y="843.4" width="100" height="100"/>
			</g>
		</g>
		<g transform="translate(595,805) scale(0.35,0.35)">
			<g transform="">
				<rect x="492.7" y="843.4" width="100" height="100"/>
			</g>
		</g>
		<g transform="translate(700,805) scale(0.35,0.35)">
			<g transform="">
				<rect x="492.7" y="843.4" width="100" height="100"/>
			</g>
		</g>
		<g transform="translate(840,805) scale(0.35,0.35)">
			<g transform="">
				<rect x="492.7" y="843.4" width="100" height="100"/>
			</g>
		</g>
		<g transform="translate(875,805) scale(0.35,0.35)">
			<g transform="">
				<rect x="492.7" y="843.4" width="100" height="100"/>
			</g>
		</g>
		<g transform="translate(980,805) scale(0.35,0.35)">
			<g transform="">
				<rect x="492.7" y="843.4" width="100" height="100"/>
			</g>
		</g>
		<g transform="translate(280,840) scale(0.35,0.35)">
			<g transform="">
				<rect x="492.7" y="843.4" width="100" height="100"/>
			</g>
		</g>
		<g transform="translate(385,840) scale(0.35,0.35)">
			<g transform="">
				<rect x="492.7" y="843.4" width="100" height="100"/>
			</g>
		</g>
		<g transform="translate(420,840) scale(0.35,0.35)">
			<g transform="">
				<rect x="492.7" y="843.4" width="100" height="100"/>
			</g>
		</g>
		<g transform="translate(525,840) scale(0.35,0.35)">
			<g transform="">
				<rect x="492.7" y="843.4" width="100" height="100"/>
			</g>
		</g>
		<g transform="translate(595,840) scale(0.35,0.35)">
			<g transform="">
				<rect x="492.7" y="843.4" width="100" height="100"/>
			</g>
		</g>
		<g transform="translate(700,840) scale(0.35,0.35)">
			<g transform="">
				<rect x="492.7" y="843.4" width="100" height="100"/>
			</g>
		</g>
		<g transform="translate(735,840) scale(0.35,0.35)">
			<g transform="">
				<rect x="492.7" y="843.4" width="100" height="100"/>
			</g>
		</g>
		<g transform="translate(770,840) scale(0.35,0.35)">
			<g transform="">
				<rect x="492.7" y="843.4" width="100" height="100"/>
			</g>
		</g>
		<g transform="translate(805,840) scale(0.35,0.35)">
			<g transform="">
				<rect x="492.7" y="843.4" width="100" height="100"/>
			</g>
		</g>
		<g transform="translate(840,840) scale(0.35,0.35)">
			<g transform="">
				<rect x="492.7" y="843.4" width="100" height="100"/>
			</g>
		</g>
		<g transform="translate(980,840) scale(0.35,0.35)">
			<g transform="">
				<rect x="492.7" y="843.4" width="100" height="100"/>
			</g>
		</g>
		<g transform="translate(315,875) scale(0.35,0.35)">
			<g transform="">
				<rect x="492.7" y="843.4" width="100" height="100"/>
			</g>
		</g>
		<g transform="translate(350,875) scale(0.35,0.35)">
			<g transform="">
				<rect x="492.7" y="843.4" width="100" height="100"/>
			</g>
		</g>
		<g transform="translate(385,875) scale(0.35,0.35)">
			<g transform="">
				<rect x="492.7" y="843.4" width="100" height="100"/>
			</g>
		</g>
		<g transform="translate(420,875) scale(0.35,0.35)">
			<g transform="">
				<rect x="492.7" y="843.4" width="100" height="100"/>
			</g>
		</g>
		<g transform="translate(455,875) scale(0.35,0.35)">
			<g transform="">
				<rect x="492.7" y="843.4" width="100" height="100"/>
			</g>
		</g>
		<g transform="translate(525,875) scale(0.35,0.35)">
			<g transform="">
				<rect x="492.7" y="843.4" width="100" height="100"/>
			</g>
		</g>
		<g transform="translate(560,875) scale(0.35,0.35)">
			<g transform="">
				<rect x="492.7" y="843.4" width="100" height="100"/>
			</g>
		</g>
		<g transform="translate(595,875) scale(0.35,0.35)">
			<g transform="">
				<rect x="492.7" y="843.4" width="100" height="100"/>
			</g>
		</g>
		<g transform="translate(630,875) scale(0.35,0.35)">
			<g transform="">
				<rect x="492.7" y="843.4" width="100" height="100"/>
			</g>
		</g>
		<g transform="translate(665,875) scale(0.35,0.35)">
			<g transform="">
				<rect x="492.7" y="843.4" width="100" height="100"/>
			</g>
		</g>
		<g transform="translate(700,875) scale(0.35,0.35)">
			<g transform="">
				<rect x="492.7" y="843.4" width="100" height="100"/>
			</g>
		</g>
		<g transform="translate(840,875) scale(0.35,0.35)">
			<g transform="">
				<rect x="492.7" y="843.4" width="100" height="100"/>
			</g>
		</g>
		<g transform="translate(910,875) scale(0.35,0.35)">
			<g transform="">
				<rect x="492.7" y="843.4" width="100" height="100"/>
			</g>
		</g>
		<g transform="translate(945,875) scale(0.35,0.35)">
			<g transform="">
				<rect x="492.7" y="843.4" width="100" height="100"/>
			</g>
		</g>
		<g transform="translate(980,875) scale(0.35,0.35)">
			<g transform="">
				<rect x="492.7" y="843.4" width="100" height="100"/>
			</g>
		</g>
		<g transform="translate(280,910) scale(0.35,0.35)">
			<g transform="">
				<rect x="492.7" y="843.4" width="100" height="100"/>
			</g>
		</g>
		<g transform="translate(385,910) scale(0.35,0.35)">
			<g transform="">
				<rect x="492.7" y="843.4" width="100" height="100"/>
			</g>
		</g>
		<g transform="translate(420,910) scale(0.35,0.35)">
			<g transform="">
				<rect x="492.7" y="843.4" width="100" height="100"/>
			</g>
		</g>
		<g transform="translate(455,910) scale(0.35,0.35)">
			<g transform="">
				<rect x="492.7" y="843.4" width="100" height="100"/>
			</g>
		</g>
		<g transform="translate(665,910) scale(0.35,0.35)">
			<g transform="">
				<rect x="492.7" y="843.4" width="100" height="100"/>
			</g>
		</g>
		<g transform="translate(805,910) scale(0.35,0.35)">
			<g transform="">
				<rect x="492.7" y="843.4" width="100" height="100"/>
			</g>
		</g>
		<g transform="translate(840,910) scale(0.35,0.35)">
			<g transform="">
				<rect x="492.7" y="843.4" width="100" height="100"/>
			</g>
		</g>
		<g transform="translate(875,910) scale(0.35,0.35)">
			<g transform="">
				<rect x="492.7" y="843.4" width="100" height="100"/>
			</g>
		</g>
		<g transform="translate(980,910) scale(0.35,0.35)">
			<g transform="">
				<rect x="492.7" y="843.4" width="100" height="100"/>
			</g>
		</g>
		<g transform="translate(315,945) scale(0.35,0.35)">
			<g transform="">
				<rect x="492.7" y="843.4" width="100" height="100"/>
			</g>
		</g>
		<g transform="translate(350,945) scale(0.35,0.35)">
			<g transform="">
				<rect x="492.7" y="843.4" width="100" height="100"/>
			</g>
		</g>
		<g transform="translate(385,945) scale(0.35,0.35)">
			<g transform="">
				<rect x="492.7" y="843.4" width="100" height="100"/>
			</g>
		</g>
		<g transform="translate(420,945) scale(0.35,0.35)">
			<g transform="">
				<rect x="492.7" y="843.4" width="100" height="100"/>
			</g>
		</g>
		<g transform="translate(490,945) scale(0.35,0.35)">
			<g transform="">
				<rect x="492.7" y="843.4" width="100" height="100"/>
			</g>
		</g>
		<g transform="translate(560,945) scale(0.35,0.35)">
			<g transform="">
				<rect x="492.7" y="843.4" width="100" height="100"/>
			</g>
		</g>
		<g transform="translate(595,945) scale(0.35,0.35)">
			<g transform="">
				<rect x="492.7" y="843.4" width="100" height="100"/>
			</g>
		</g>
		<g transform="translate(665,945) scale(0.35,0.35)">
			<g transform="">
				<rect x="492.7" y="843.4" width="100" height="100"/>
			</g>
		</g>
		<g transform="translate(700,945) scale(0.35,0.35)">
			<g transform="">
				<rect x="492.7" y="843.4" width="100" height="100"/>
			</g>
		</g>
		<g transform="translate(735,945) scale(0.35,0.35)">
			<g transform="">
				<rect x="492.7" y="843.4" width="100" height="100"/>
			</g>
		</g>
		<g transform="translate(770,945) scale(0.35,0.35)">
			<g transform="">
				<rect x="492.7" y="843.4" width="100" height="100"/>
			</g>
		</g>
		<g transform="translate(840,945) scale(0.35,0.35)">
			<g transform="">
				<rect x="492.7" y="843.4" width="100" height="100"/>
			</g>
		</g>
		<g transform="translate(945,945) scale(0.35,0.35)">
			<g transform="">
				<rect x="492.7" y="843.4" width="100" height="100"/>
			</g>
		</g>
		<g transform="translate(280,980) scale(0.35,0.35)">
			<g transform="">
				<rect x="492.7" y="843.4" width="100" height="100"/>
			</g>
		</g>
		<g transform="translate(315,980) scale(0.35,0.35)">
			<g transform="">
				<rect x="492.7" y="843.4" width="100" height="100"/>
			</g>
		</g>
		<g transform="translate(420,980) scale(0.35,0.35)">
			<g transform="">
				<rect x="492.7" y="843.4" width="100" height="100"/>
			</g>
		</g>
		<g transform="translate(490,980) scale(0.35,0.35)">
			<g transform="">
				<rect x="492.7" y="843.4" width="100" height="100"/>
			</g>
		</g>
		<g transform="translate(525,980) scale(0.35,0.35)">
			<g transform="">
				<rect x="492.7" y="843.4" width="100" height="100"/>
			</g>
		</g>
		<g transform="translate(560,980) scale(0.35,0.35)">
			<g transform="">
				<rect x="492.7" y="843.4" width="100" height="100"/>
			</g>
		</g>
		<g transform="translate(595,980) scale(0.35,0.35)">
			<g transform="">
				<rect x="492.7" y="843.4" width="100" height="100"/>
			</g>
		</g>
		<g transform="translate(630,980) scale(0.35,0.35)">
			<g transform="">
				<rect x="492.7" y="843.4" width="100" height="100"/>
			</g>
		</g>
		<g transform="translate(665,980) scale(0.35,0.35)">
			<g transform="">
				<rect x="492.7" y="843.4" width="100" height="100"/>
			</g>
		</g>
		<g transform="translate(700,980) scale(0.35,0.35)">
			<g transform="">
				<rect x="492.7" y="843.4" width="100" height="100"/>
			</g>
		</g>
		<g transform="translate(735,980) scale(0.35,0.35)">
			<g transform="">
				<rect x="492.7" y="843.4" width="100" height="100"/>
			</g>
		</g>
		<g transform="translate(770,980) scale(0.35,0.35)">
			<g transform="">
				<rect x="492.7" y="843.4" width="100" height="100"/>
			</g>
		</g>
		<g transform="translate(805,980) scale(0.35,0.35)">
			<g transform="">
				<rect x="492.7" y="843.4" width="100" height="100"/>
			</g>
		</g>
		<g transform="translate(945,980) scale(0.35,0.35)">
			<g transform="">
				<rect x="492.7" y="843.4" width="100" height="100"/>
			</g>
		</g>
		<g transform="translate(980,980) scale(0.35,0.35)">
			<g transform="">
				<rect x="492.7" y="843.4" width="100" height="100"/>
			</g>
		</g>
		<g transform="translate(0,0) scale(2.45, 2.45)">
			<g transform="">
				<g>
					<rect x="85.4" y="135.5" class="st1" width="70" height="70"/>
					<path d="M155.4,120.5h-70h-15v15v70v15h15h70h15v-15v-70v-15H155.4z M155.4,205.5h-70v-70h70V205.5z"/>
				</g>
			</g>
		</g>
		<g transform="translate(770,0) scale(2.45, 2.45)">
			<g transform="">
				<g>
					<rect x="85.4" y="135.5" class="st1" width="70" height="70"/>
					<path d="M155.4,120.5h-70h-15v15v70v15h15h70h15v-15v-70v-15H155.4z M155.4,205.5h-70v-70h70V205.5z"/>
				</g>
			</g>
		</g>
		<g transform="translate(0,770) scale(2.45, 2.45)">
			<g transform="">
				<g>
					<rect x="85.4" y="135.5" class="st1" width="70" height="70"/>
					<path d="M155.4,120.5h-70h-15v15v70v15h15h70h15v-15v-70v-15H155.4z M155.4,205.5h-70v-70h70V205.5z"/>
				</g>
			</g>
		</g>
		<g transform="translate(70,70) scale(1.05, 1.05)">
			<g transform="">
				<rect x="164.2" y="281.1" width="100" height="100"/>
			</g>
		</g>
		<g transform="translate(840,70) scale(1.05, 1.05)">
			<g transform="">
				<rect x="164.2" y="281.1" width="100" height="100"/>
			</g>
		</g>
		<g transform="translate(70,840) scale(1.05, 1.05)">
			<g transform="">
				<rect x="164.2" y="281.1" width="100" height="100"/>
			</g>
		</g>
	</g>
</g>
<g id="Capa_2">
	<g>
		<g>
			<path class="st2" d="M1318.5,1471.5H160.3c-30.4,0-55-24.6-55-55V258.4c0-30.4,24.6-55,55-55h1158.2c30.4,0,55,24.6,55,55v1158.2
				C1373.4,1446.9,1348.8,1471.5,1318.5,1471.5z"/>
		</g>
		<rect x="43.2" y="169.9" width="1234.3" height="145"/>
	</g>
	<g>
		<path id="path4109_1_" class="st0" d="M1222.5,347.3c3.2-3.1,6.4-6.2,9.5-9.4l1.3-1.3l1.4,1.3c3.2,3,6.4,6.2,9.6,9.3
			c32.2-31.8,64.1-63.9,96.1-95.9l1.4-1.4l1.4,1.4c2.7,2.6,5.4,5.3,8.1,7.9l1.5,1.4l-1.5,1.4c-3.2,3.1-6.3,6.2-9.3,9.4
			c10.8,11,21.6,21.9,32.6,32.6c10.8-10.8,21.7-21.6,32.4-32.4c-3.1-3.2-6.1-6.5-9.5-9.5l-1.9-1.6l2-1.5c3.6-2.7,6.4-6.1,9.6-9.3
			c-2.8-3.2-5.8-6.2-8.9-9.3l-1.3-1.3l1.2-1.4c6.2-7.2,13.1-13.7,19.8-20.5c-3-3.2-6.1-6.4-9.2-9.6l-1.3-1.4l1.3-1.4
			c6.7-6.8,13.4-13.4,20-20.3c-3.1-3.2-6.1-6.5-9.5-9.5l-1.7-1.5l1.7-1.5c7.2-6.2,13.5-13.4,20.3-20.1c-3-3.1-6-6.2-9.1-9.3
			l-1.4-1.4l1.4-1.4c10.2-10.5,20.7-20.8,30.9-31.3c-17.6-18.1-35.5-36.1-53.4-53.9c-18.3-18.3-36.5-36.8-55.3-54.6
			c-10,10.6-21.3,20-31.2,30.8l-1.4,1.5l-1.4-1.5c-3-3.2-6.1-6.2-9.3-9.1c-10.4,10.2-20.7,20.4-31,30.7l-1.3,1.3l-1.4-1.1
			c-3.4-2.8-6.6-5.9-9.7-9.1c-11.6,11.4-22.9,23.2-34.7,34.3l0,0l0,0c-13.4,14.2-27.6,27.8-41.2,41.8c3.1,3.1,6.2,6.2,9.2,9.3
			l1.3,1.4l-1.3,1.4c-3,3.1-6,6.2-9.1,9.2c3.1,3.3,6.4,6.3,9.3,9.7l1.2,1.3l-1.1,1.3c-2.9,3.4-6.3,6.5-9.4,9.7
			c6.7,6.8,13.5,13.5,20.2,20.3l1.3,1.4l-1.3,1.4c-3,3.1-6,6.2-9.1,9.2c9.8,10.9,20.5,20.9,30.8,31.4l1.3,1.3l-1.3,1.4
			c-3,3.3-6.1,6.5-9.3,9.6c6.7,6.8,13.5,13.4,20.1,20.3l1.3,1.4l-1.3,1.4c-13.8,14.1-27.8,27.9-41.7,41.9c1.8,1.8,3.6,3.6,5.4,5.4
			c1.3,1.3,2.7,2.7,4,4l1.4,1.4l-1.4,1.4c-3.2,3.2-6.4,6.4-9.3,9.8C1208.2,333,1215.4,340.1,1222.5,347.3L1222.5,347.3z"/>
		<path id="path3016_1_" class="st3" d="M1222.5,347.3c-7.1-7.2-14.2-14.3-21.4-21.4c3.2-3.9,6.8-7.5,10.5-11
			c7.3,7.2,14.5,14.5,21.8,21.6C1229.7,340.1,1226.1,343.7,1222.5,347.3z"/>
		<path id="path3018_1_" class="st3" d="M1244.3,347.2c-3.6-3.6-7.2-7.2-11-10.6c39.8-39.8,79.6-79.7,119.4-119.5
			c3.7,3.5,7.3,7.2,10.9,10.9c-3.5,3.6-7.1,7.2-10.7,10.7c3.5,3.7,7.1,7.3,10.7,10.9c-3.5,3.8-7.1,7.4-10.9,10.9
			c-3.7-3.5-7.3-7.1-11-10.7C1309.3,282.3,1277,314.9,1244.3,347.2L1244.3,347.2z"/>
		<path id="path3020_1_" class="st3" d="M1211.8,314.6c-3.6-3.5-7.2-7.2-10.8-10.8c14.3-14.4,28.8-28.7,43.1-43.3
			c-7-7.4-14.3-14.5-21.4-21.7c3.6-3.6,7.2-7.2,10.6-11c-10.6-11-21.9-21.4-32.1-32.8c3.6-3.5,7-7,10.5-10.6
			c-7.1-7.3-14.4-14.5-21.5-21.7c3.6-3.7,7.4-7.1,10.6-11c-3.3-3.9-7-7.3-10.5-11c3.6-3.5,7.1-7,10.5-10.6c-3.5-3.6-7-7.2-10.6-10.7
			c13.7-14,27.8-27.6,41.2-41.8c11.9-11.2,23.2-22.9,34.8-34.4c3.5,3.6,7.1,7.2,11.1,10.3c10.7-10.7,21.4-21.4,32.3-32
			c3.7,3.4,7.4,6.9,10.7,10.6c-10.5,11.3-21.6,22-32.6,32.8c-3.5-3.6-7.1-7.2-10.7-10.8c-25.3,25.3-50.7,50.6-76,75.9
			c3.5,3.6,7.1,7.2,10.7,10.7c-3.3,3.7-7.1,7-10.3,10.8c2.9,4.2,6.9,7.4,10.5,11c10.9-10.8,21.6-21.8,32.7-32.5
			c3.6,3.5,7.1,7.1,10.7,10.6c-14.2,14.7-29,29-43.4,43.5c7.2,7.3,14.5,14.5,21.8,21.8c10.9-10.9,21.6-21.8,32.6-32.5
			c3.7,3.5,7.3,7.1,10.8,10.8c-14.4,14.5-28.9,29-43.5,43.3c7.2,7.3,14.5,14.6,21.8,21.8c14.5-14.4,28.9-29,43.4-43.4
			c3.7,3.5,7.4,7.2,10.9,10.9C1276.9,249.7,1244.4,282.2,1211.8,314.6L1211.8,314.6z"/>
		<path id="path3026_1_" class="st3" d="M1374.7,303.9c-11-10.7-21.9-21.6-32.6-32.6c3.5-3.7,7.1-7.3,10.8-10.8
			c7.4,7,14.5,14.4,21.7,21.5c7.4-6.9,14-14.7,21.6-21.4c4,3.2,7.4,7.1,11,10.8C1396.3,282.3,1385.5,293.1,1374.7,303.9z"/>
		<path id="path3030_1_" class="st3" d="M1396.1,260.1c-4-3-7.4-6.7-10.8-10.3c3.5-3.7,7.2-7.3,10.8-10.9
			c-3.6-3.6-7.2-7.3-10.8-10.9c7.1-7.3,14.4-14.4,21.6-21.7c-3.6-3.6-7.2-7.1-10.7-10.8c7.3-7.2,14.1-15,22-21.5
			c3.8,3.2,7.1,7,10.6,10.6c-7,7.3-14.2,14.4-21.3,21.6c3.6,3.6,7.1,7.3,10.5,11c-7,7.2-14.5,14-21,21.8c3.5,3.5,6.9,7,10.2,10.6
			C1403.6,253.2,1400.4,257.3,1396.1,260.1L1396.1,260.1z"/>
		<path id="path3038_1_" class="st3" d="M1417.8,173.4c-3.8-3.3-7.2-7-10.8-10.6c7.1-7.3,14.4-14.4,21.6-21.6
			c-3.6-3.6-7.3-7.2-10.7-11c7.1-7.3,14.5-14.4,21.6-21.7c-28.8-29-57.7-57.8-86.6-86.7c-7.3,7.1-14.4,14.5-21.7,21.6
			c-3.7-3.6-7.5-7.3-11-11.2c10.2-11.4,22.1-21.2,32.6-32.3c18.8,17.9,36.9,36.4,55.3,54.6c17.9,17.9,35.8,35.8,53.4,53.9
			c-10.7,11-21.6,21.7-32.2,32.7c3.5,3.5,7,7.1,10.5,10.7C1432.4,159.1,1425.7,167,1417.8,173.4L1417.8,173.4z"/>
	</g>
	<text transform="matrix(1 0 0 1 58.9677 210.1374)" class="st0 st4 st5">Hazme Click!</text>
	<line class="st6" x1="24.8" y1="260.1" x2="1065" y2="260.1"/>
</g>
</svg>
