<svg xmlns="http://www.w3.org/2000/svg" viewBox="0 0 1499.9 1499.9"><defs><style>.cls-1{fill:#fff;}.cls-2,.cls-3,.cls-6{fill:none;}.cls-3{stroke:#4169e1;stroke-width:20px;stroke-dasharray:47.87 47.87;}.cls-3,.cls-6{stroke-linecap:round;stroke-miterlimit:10;}.cls-4{fill:#1c1c1c;}.cls-5{font-size:110px;font-family:Poppins-Italic, Poppins;font-style:italic;}.cls-6{stroke:#000;stroke-width:5px;}</style></defs><title>Mesa de trabajo 1</title><g id="Layer_1" data-name="Layer 1"><rect class="cls-1" x="172.45" y="242.68" width="1155" height="1155"/><rect x="732.45" y="365.18" width="35" height="35"/><rect x="872.45" y="365.18" width="35" height="35"/><rect x="907.45" y="365.18" width="35" height="35"/><rect x="522.45" y="400.18" width="35" height="35"/><rect x="557.45" y="400.18" width="35" height="35"/><rect x="627.45" y="400.18" width="35" height="35"/><rect x="697.45" y="400.18" width="35" height="35"/><rect x="837.45" y="400.18" width="35" height="35"/><rect x="872.45" y="400.18" width="35" height="35"/><rect x="907.45" y="400.18" width="35" height="35"/><rect x="627.45" y="435.18" width="35" height="35"/><rect x="767.45" y="435.18" width="35" height="35"/><rect x="907.45" y="435.18" width="35" height="35"/><rect x="557.45" y="470.18" width="35" height="35"/><rect x="592.45" y="470.18" width="35" height="35"/><rect x="662.45" y="470.18" width="35" height="35"/><rect x="697.45" y="470.18" width="35" height="35"/><rect x="872.45" y="470.18" width="35" height="35"/><rect x="522.45" y="505.18" width="35" height="35"/><rect x="557.45" y="505.18" width="35" height="35"/><rect x="662.45" y="505.18" width="35" height="35"/><rect x="697.45" y="505.18" width="35" height="35"/><rect x="802.45" y="505.18" width="35" height="35"/><rect x="907.45" y="505.18" width="35" height="35"/><rect x="592.45" y="540.18" width="35" height="35"/><rect x="662.45" y="540.18" width="35" height="35"/><rect x="732.45" y="540.18" width="35" height="35"/><rect x="767.45" y="540.18" width="35" height="35"/><rect x="802.45" y="540.18" width="35" height="35"/><rect x="837.45" y="540.18" width="35" height="35"/><rect x="872.45" y="540.18" width="35" height="35"/><rect x="907.45" y="540.18" width="35" height="35"/><rect x="522.45" y="575.18" width="35" height="35"/><rect x="592.45" y="575.18" width="35" height="35"/><rect x="662.45" y="575.18" width="35" height="35"/><rect x="732.45" y="575.18" width="35" height="35"/><rect x="802.45" y="575.18" width="35" height="35"/><rect x="872.45" y="575.18" width="35" height="35"/><rect x="942.45" y="575.18" width="35" height="35"/><rect x="557.45" y="610.18" width="35" height="35"/><rect x="592.45" y="610.18" width="35" height="35"/><rect x="627.45" y="610.18" width="35" height="35"/><rect x="767.45" y="610.18" width="35" height="35"/><rect x="802.45" y="610.18" width="35" height="35"/><rect x="837.45" y="610.18" width="35" height="35"/><rect x="942.45" y="610.18" width="35" height="35"/><rect x="242.45" y="645.18" width="35" height="35"/><rect x="312.45" y="645.18" width="35" height="35"/><rect x="382.45" y="645.18" width="35" height="35"/><rect x="452.45" y="645.18" width="35" height="35"/><rect x="592.45" y="645.18" width="35" height="35"/><rect x="662.45" y="645.18" width="35" height="35"/><rect x="767.45" y="645.18" width="35" height="35"/><rect x="802.45" y="645.18" width="35" height="35"/><rect x="837.45" y="645.18" width="35" height="35"/><rect x="872.45" y="645.18" width="35" height="35"/><rect x="907.45" y="645.18" width="35" height="35"/><rect x="942.45" y="645.18" width="35" height="35"/><rect x="1082.45" y="645.18" width="35" height="35"/><rect x="1187.45" y="645.18" width="35" height="35"/><rect x="277.45" y="680.18" width="35" height="35"/><rect x="382.45" y="680.18" width="35" height="35"/><rect x="522.45" y="680.18" width="35" height="35"/><rect x="592.45" y="680.18" width="35" height="35"/><rect x="662.45" y="680.18" width="35" height="35"/><rect x="697.45" y="680.18" width="35" height="35"/><rect x="802.45" y="680.18" width="35" height="35"/><rect x="1012.45" y="680.18" width="35" height="35"/><rect x="1117.45" y="680.18" width="35" height="35"/><rect x="1222.45" y="680.18" width="35" height="35"/><rect x="277.45" y="715.18" width="35" height="35"/><rect x="347.45" y="715.18" width="35" height="35"/><rect x="417.45" y="715.18" width="35" height="35"/><rect x="452.45" y="715.18" width="35" height="35"/><rect x="522.45" y="715.18" width="35" height="35"/><rect x="732.45" y="715.18" width="35" height="35"/><rect x="837.45" y="715.18" width="35" height="35"/><rect x="977.45" y="715.18" width="35" height="35"/><rect x="1012.45" y="715.18" width="35" height="35"/><rect x="1152.45" y="715.18" width="35" height="35"/><rect x="1187.45" y="715.18" width="35" height="35"/><rect x="1222.45" y="715.18" width="35" height="35"/><rect x="277.45" y="750.18" width="35" height="35"/><rect x="312.45" y="750.18" width="35" height="35"/><rect x="417.45" y="750.18" width="35" height="35"/><rect x="487.45" y="750.18" width="35" height="35"/><rect x="557.45" y="750.18" width="35" height="35"/><rect x="627.45" y="750.18" width="35" height="35"/><rect x="697.45" y="750.18" width="35" height="35"/><rect x="732.45" y="750.18" width="35" height="35"/><rect x="802.45" y="750.18" width="35" height="35"/><rect x="837.45" y="750.18" width="35" height="35"/><rect x="872.45" y="750.18" width="35" height="35"/><rect x="1012.45" y="750.18" width="35" height="35"/><rect x="1082.45" y="750.18" width="35" height="35"/><rect x="1187.45" y="750.18" width="35" height="35"/><rect x="242.45" y="785.18" width="35" height="35"/><rect x="312.45" y="785.18" width="35" height="35"/><rect x="382.45" y="785.18" width="35" height="35"/><rect x="452.45" y="785.18" width="35" height="35"/><rect x="487.45" y="785.18" width="35" height="35"/><rect x="557.45" y="785.18" width="35" height="35"/><rect x="592.45" y="785.18" width="35" height="35"/><rect x="732.45" y="785.18" width="35" height="35"/><rect x="802.45" y="785.18" width="35" height="35"/><rect x="837.45" y="785.18" width="35" height="35"/><rect x="977.45" y="785.18" width="35" height="35"/><rect x="1012.45" y="785.18" width="35" height="35"/><rect x="1117.45" y="785.18" width="35" height="35"/><rect x="1187.45" y="785.18" width="35" height="35"/><rect x="1222.45" y="785.18" width="35" height="35"/><rect x="277.45" y="820.18" width="35" height="35"/><rect x="347.45" y="820.18" width="35" height="35"/><rect x="382.45" y="820.18" width="35" height="35"/><rect x="487.45" y="820.18" width="35" height="35"/><rect x="557.45" y="820.18" width="35" height="35"/><rect x="627.45" y="820.18" width="35" height="35"/><rect x="732.45" y="820.18" width="35" height="35"/><rect x="802.45" y="820.18" width="35" height="35"/><rect x="837.45" y="820.18" width="35" height="35"/><rect x="942.45" y="820.18" width="35" height="35"/><rect x="977.45" y="820.18" width="35" height="35"/><rect x="1012.45" y="820.18" width="35" height="35"/><rect x="1117.45" y="820.18" width="35" height="35"/><rect x="1222.45" y="820.18" width="35" height="35"/><rect x="382.45" y="855.18" width="35" height="35"/><rect x="417.45" y="855.18" width="35" height="35"/><rect x="452.45" y="855.18" width="35" height="35"/><rect x="487.45" y="855.18" width="35" height="35"/><rect x="522.45" y="855.18" width="35" height="35"/><rect x="662.45" y="855.18" width="35" height="35"/><rect x="697.45" y="855.18" width="35" height="35"/><rect x="837.45" y="855.18" width="35" height="35"/><rect x="872.45" y="855.18" width="35" height="35"/><rect x="942.45" y="855.18" width="35" height="35"/><rect x="977.45" y="855.18" width="35" height="35"/><rect x="1012.45" y="855.18" width="35" height="35"/><rect x="1047.45" y="855.18" width="35" height="35"/><rect x="1082.45" y="855.18" width="35" height="35"/><rect x="1117.45" y="855.18" width="35" height="35"/><rect x="1187.45" y="855.18" width="35" height="35"/><rect x="1222.45" y="855.18" width="35" height="35"/><rect x="347.45" y="890.18" width="35" height="35"/><rect x="382.45" y="890.18" width="35" height="35"/><rect x="487.45" y="890.18" width="35" height="35"/><rect x="592.45" y="890.18" width="35" height="35"/><rect x="627.45" y="890.18" width="35" height="35"/><rect x="662.45" y="890.18" width="35" height="35"/><rect x="767.45" y="890.18" width="35" height="35"/><rect x="837.45" y="890.18" width="35" height="35"/><rect x="872.45" y="890.18" width="35" height="35"/><rect x="1117.45" y="890.18" width="35" height="35"/><rect x="1187.45" y="890.18" width="35" height="35"/><rect x="277.45" y="925.18" width="35" height="35"/><rect x="312.45" y="925.18" width="35" height="35"/><rect x="347.45" y="925.18" width="35" height="35"/><rect x="382.45" y="925.18" width="35" height="35"/><rect x="452.45" y="925.18" width="35" height="35"/><rect x="557.45" y="925.18" width="35" height="35"/><rect x="662.45" y="925.18" width="35" height="35"/><rect x="837.45" y="925.18" width="35" height="35"/><rect x="977.45" y="925.18" width="35" height="35"/><rect x="1012.45" y="925.18" width="35" height="35"/><rect x="1117.45" y="925.18" width="35" height="35"/><rect x="1187.45" y="925.18" width="35" height="35"/><rect x="1222.45" y="925.18" width="35" height="35"/><rect x="277.45" y="960.18" width="35" height="35"/><rect x="417.45" y="960.18" width="35" height="35"/><rect x="487.45" y="960.18" width="35" height="35"/><rect x="522.45" y="960.18" width="35" height="35"/><rect x="627.45" y="960.18" width="35" height="35"/><rect x="662.45" y="960.18" width="35" height="35"/><rect x="697.45" y="960.18" width="35" height="35"/><rect x="837.45" y="960.18" width="35" height="35"/><rect x="942.45" y="960.18" width="35" height="35"/><rect x="977.45" y="960.18" width="35" height="35"/><rect x="1012.45" y="960.18" width="35" height="35"/><rect x="1117.45" y="960.18" width="35" height="35"/><rect x="1152.45" y="960.18" width="35" height="35"/><rect x="1222.45" y="960.18" width="35" height="35"/><rect x="242.45" y="995.18" width="35" height="35"/><rect x="452.45" y="995.18" width="35" height="35"/><rect x="557.45" y="995.18" width="35" height="35"/><rect x="592.45" y="995.18" width="35" height="35"/><rect x="732.45" y="995.18" width="35" height="35"/><rect x="802.45" y="995.18" width="35" height="35"/><rect x="1012.45" y="995.18" width="35" height="35"/><rect x="1082.45" y="995.18" width="35" height="35"/><rect x="1187.45" y="995.18" width="35" height="35"/><rect x="1222.45" y="995.18" width="35" height="35"/><rect x="277.45" y="1030.18" width="35" height="35"/><rect x="312.45" y="1030.18" width="35" height="35"/><rect x="382.45" y="1030.18" width="35" height="35"/><rect x="417.45" y="1030.18" width="35" height="35"/><rect x="592.45" y="1030.18" width="35" height="35"/><rect x="662.45" y="1030.18" width="35" height="35"/><rect x="697.45" y="1030.18" width="35" height="35"/><rect x="732.45" y="1030.18" width="35" height="35"/><rect x="837.45" y="1030.18" width="35" height="35"/><rect x="872.45" y="1030.18" width="35" height="35"/><rect x="907.45" y="1030.18" width="35" height="35"/><rect x="977.45" y="1030.18" width="35" height="35"/><rect x="1012.45" y="1030.18" width="35" height="35"/><rect x="1047.45" y="1030.18" width="35" height="35"/><rect x="1117.45" y="1030.18" width="35" height="35"/><rect x="1187.45" y="1030.18" width="35" height="35"/><rect x="242.45" y="1065.18" width="35" height="35"/><rect x="347.45" y="1065.18" width="35" height="35"/><rect x="382.45" y="1065.18" width="35" height="35"/><rect x="452.45" y="1065.18" width="35" height="35"/><rect x="487.45" y="1065.18" width="35" height="35"/><rect x="522.45" y="1065.18" width="35" height="35"/><rect x="557.45" y="1065.18" width="35" height="35"/><rect x="627.45" y="1065.18" width="35" height="35"/><rect x="732.45" y="1065.18" width="35" height="35"/><rect x="767.45" y="1065.18" width="35" height="35"/><rect x="802.45" y="1065.18" width="35" height="35"/><rect x="837.45" y="1065.18" width="35" height="35"/><rect x="942.45" y="1065.18" width="35" height="35"/><rect x="977.45" y="1065.18" width="35" height="35"/><rect x="1012.45" y="1065.18" width="35" height="35"/><rect x="1047.45" y="1065.18" width="35" height="35"/><rect x="1082.45" y="1065.18" width="35" height="35"/><rect x="522.45" y="1100.18" width="35" height="35"/><rect x="557.45" y="1100.18" width="35" height="35"/><rect x="732.45" y="1100.18" width="35" height="35"/><rect x="767.45" y="1100.18" width="35" height="35"/><rect x="802.45" y="1100.18" width="35" height="35"/><rect x="837.45" y="1100.18" width="35" height="35"/><rect x="872.45" y="1100.18" width="35" height="35"/><rect x="907.45" y="1100.18" width="35" height="35"/><rect x="942.45" y="1100.18" width="35" height="35"/><rect x="1082.45" y="1100.18" width="35" height="35"/><rect x="1152.45" y="1100.18" width="35" height="35"/><rect x="1187.45" y="1100.18" width="35" height="35"/><rect x="1222.45" y="1100.18" width="35" height="35"/><rect x="557.45" y="1135.18" width="35" height="35"/><rect x="592.45" y="1135.18" width="35" height="35"/><rect x="662.45" y="1135.18" width="35" height="35"/><rect x="697.45" y="1135.18" width="35" height="35"/><rect x="802.45" y="1135.18" width="35" height="35"/><rect x="837.45" y="1135.18" width="35" height="35"/><rect x="872.45" y="1135.18" width="35" height="35"/><rect x="907.45" y="1135.18" width="35" height="35"/><rect x="942.45" y="1135.18" width="35" height="35"/><rect x="1012.45" y="1135.18" width="35" height="35"/><rect x="1082.45" y="1135.18" width="35" height="35"/><rect x="1117.45" y="1135.18" width="35" height="35"/><rect x="1187.45" y="1135.18" width="35" height="35"/><rect x="1222.45" y="1135.18" width="35" height="35"/><rect x="592.45" y="1170.18" width="35" height="35"/><rect x="662.45" y="1170.18" width="35" height="35"/><rect x="767.45" y="1170.18" width="35" height="35"/><rect x="837.45" y="1170.18" width="35" height="35"/><rect x="942.45" y="1170.18" width="35" height="35"/><rect x="1082.45" y="1170.18" width="35" height="35"/><rect x="1117.45" y="1170.18" width="35" height="35"/><rect x="1222.45" y="1170.18" width="35" height="35"/><rect x="522.45" y="1205.18" width="35" height="35"/><rect x="627.45" y="1205.18" width="35" height="35"/><rect x="662.45" y="1205.18" width="35" height="35"/><rect x="767.45" y="1205.18" width="35" height="35"/><rect x="837.45" y="1205.18" width="35" height="35"/><rect x="942.45" y="1205.18" width="35" height="35"/><rect x="977.45" y="1205.18" width="35" height="35"/><rect x="1012.45" y="1205.18" width="35" height="35"/><rect x="1047.45" y="1205.18" width="35" height="35"/><rect x="1082.45" y="1205.18" width="35" height="35"/><rect x="1222.45" y="1205.18" width="35" height="35"/><rect x="557.45" y="1240.18" width="35" height="35"/><rect x="592.45" y="1240.18" width="35" height="35"/><rect x="627.45" y="1240.18" width="35" height="35"/><rect x="662.45" y="1240.18" width="35" height="35"/><rect x="697.45" y="1240.18" width="35" height="35"/><rect x="767.45" y="1240.18" width="35" height="35"/><rect x="802.45" y="1240.18" width="35" height="35"/><rect x="837.45" y="1240.18" width="35" height="35"/><rect x="872.45" y="1240.18" width="35" height="35"/><rect x="907.45" y="1240.18" width="35" height="35"/><rect x="942.45" y="1240.18" width="35" height="35"/><rect x="1082.45" y="1240.18" width="35" height="35"/><rect x="1152.45" y="1240.18" width="35" height="35"/><rect x="1187.45" y="1240.18" width="35" height="35"/><rect x="1222.45" y="1240.18" width="35" height="35"/><rect x="522.45" y="1275.18" width="35" height="35"/><rect x="627.45" y="1275.18" width="35" height="35"/><rect x="662.45" y="1275.18" width="35" height="35"/><rect x="697.45" y="1275.18" width="35" height="35"/><rect x="907.45" y="1275.18" width="35" height="35"/><rect x="1047.45" y="1275.18" width="35" height="35"/><rect x="1082.45" y="1275.18" width="35" height="35"/><rect x="1117.45" y="1275.18" width="35" height="35"/><rect x="1222.45" y="1275.18" width="35" height="35"/><rect x="557.45" y="1310.18" width="35" height="35"/><rect x="592.45" y="1310.18" width="35" height="35"/><rect x="627.45" y="1310.18" width="35" height="35"/><rect x="662.45" y="1310.18" width="35" height="35"/><rect x="732.45" y="1310.18" width="35" height="35"/><rect x="802.45" y="1310.18" width="35" height="35"/><rect x="837.45" y="1310.18" width="35" height="35"/><rect x="907.45" y="1310.18" width="35" height="35"/><rect x="942.45" y="1310.18" width="35" height="35"/><rect x="977.45" y="1310.18" width="35" height="35"/><rect x="1012.45" y="1310.18" width="35" height="35"/><rect x="1082.45" y="1310.18" width="35" height="35"/><rect x="1187.45" y="1310.18" width="35" height="35"/><rect x="522.45" y="1345.18" width="35" height="35"/><rect x="557.45" y="1345.18" width="35" height="35"/><rect x="662.45" y="1345.18" width="35" height="35"/><rect x="732.45" y="1345.18" width="35" height="35"/><rect x="767.45" y="1345.18" width="35" height="35"/><rect x="802.45" y="1345.18" width="35" height="35"/><rect x="837.45" y="1345.18" width="35" height="35"/><rect x="872.45" y="1345.18" width="35" height="35"/><rect x="907.45" y="1345.18" width="35" height="35"/><rect x="942.45" y="1345.18" width="35" height="35"/><rect x="977.45" y="1345.18" width="35" height="35"/><rect x="1012.45" y="1345.18" width="35" height="35"/><rect x="1047.45" y="1345.18" width="35" height="35"/><rect x="1187.45" y="1345.18" width="35" height="35"/><rect x="1222.45" y="1345.18" width="35" height="35"/><rect class="cls-2" x="279.2" y="401.93" width="171.5" height="171.5"/><path d="M450.7,365.18H242.45v245h245v-245Zm0,208.25H279.2V401.93H450.7Z"/><rect class="cls-2" x="1049.2" y="401.93" width="171.5" height="171.5"/><path d="M1220.7,365.18H1012.45v245h245v-245Zm0,208.25H1049.2V401.93h171.5Z"/><rect class="cls-2" x="279.2" y="1171.93" width="171.5" height="171.5"/><path d="M450.7,1135.18H242.45v245h245v-245Zm0,208.25H279.2v-171.5H450.7Z"/><rect x="312.45" y="435.18" width="105" height="105"/><rect x="1082.45" y="435.18" width="105" height="105"/><rect x="312.45" y="1205.18" width="105" height="105"/></g><g id="Capa_2" data-name="Capa 2"><rect class="cls-3" x="105.29" y="203.39" width="1268.13" height="1268.13" rx="54.97"/><rect class="cls-1" x="242.45" y="169.86" width="1034.97" height="76.05"/><path id="path4109" class="cls-1" d="M1051,317.31c2.63-2.55,5.23-5.13,7.85-7.71l1.11-1.08,1.13,1.05c2.67,2.51,5.3,5.08,7.92,7.67,26.5-26.21,52.76-52.63,79.11-79l1.14-1.14,1.15,1.12c2.21,2.17,4.43,4.35,6.68,6.49l1.22,1.16-1.2,1.18c-2.62,2.53-5.18,5.12-7.68,7.74,8.86,9,17.77,18,26.85,26.79q13.35-13.37,26.71-26.71c-2.54-2.64-5-5.38-7.85-7.82l-1.53-1.33,1.63-1.21c3-2.2,5.3-5,7.87-7.64-2.35-2.6-4.81-5.11-7.31-7.62l-1.06-1.06,1-1.15c5.09-5.92,10.82-11.24,16.26-16.86-2.47-2.67-5-5.3-7.57-7.91l-1.1-1.13,1.1-1.14c5.49-5.56,11-11.07,16.45-16.67-2.55-2.64-5-5.38-7.81-7.84l-1.39-1.25,1.41-1.21c6-5.08,11.14-11,16.72-16.52-2.48-2.57-5-5.13-7.48-7.67l-1.13-1.14,1.12-1.15c8.41-8.63,17-17.11,25.42-25.76-14.51-14.93-29.22-29.68-44-44.39-15.09-15.06-30-30.25-45.48-45-8.26,8.75-17.53,16.49-25.68,25.33l-1.17,1.27-1.19-1.25c-2.46-2.6-5-5.09-7.64-7.52-8.55,8.36-17,16.82-25.5,25.27l-1,1-1.14-.93a109,109,0,0,1-8-7.52c-9.54,9.41-18.83,19-28.6,28.24l0,0,0,0c-11.07,11.69-22.68,22.86-33.93,34.39,2.57,2.53,5.09,5.11,7.59,7.68l1.09,1.12-1.08,1.13c-2.46,2.56-5,5.12-7.52,7.61,2.55,2.69,5.23,5.22,7.68,8l1,1.07-.93,1.07c-2.43,2.8-5.16,5.34-7.77,8,5.54,5.58,11.13,11.09,16.59,16.71l1.11,1.14-1.11,1.13c-2.46,2.55-4.94,5.09-7.49,7.58,8.07,9,16.91,17.22,25.33,25.85l1.08,1.1-1,1.12q-3.7,4.05-7.62,7.94c5.51,5.57,11.1,11.06,16.52,16.72l1.07,1.13-1.09,1.12c-11.36,11.58-22.9,23-34.33,34.51q2.19,2.24,4.41,4.46,1.65,1.65,3.31,3.29l1.19,1.16-1.19,1.16a99.28,99.28,0,0,0-7.66,8.1c5.88,5.84,11.75,11.68,17.58,17.58Z"/><path id="path3016" class="cls-4" d="M1051,317.32q-8.74-8.85-17.58-17.59a110.24,110.24,0,0,1,8.63-9.06c6,5.9,11.9,11.93,17.93,17.82C1057,311.43,1054,314.39,1051,317.32Z"/><path id="path3018" class="cls-4" d="M1069,317.24c-3-2.94-5.94-5.92-9-8.75q49.15-49.17,98.31-98.35,4.57,4.37,9,9-4.32,4.49-8.8,8.83c2.85,3.08,5.84,6,8.82,9-2.9,3.09-5.88,6.12-9,9-3.07-2.85-6-5.86-9-8.78-26.74,26.71-53.37,53.53-80.25,80.11Z"/><path id="path3020" class="cls-4" d="M1042.2,290.43c-3-2.91-5.93-5.89-8.86-8.87,11.81-11.89,23.74-23.67,35.47-35.64-5.76-6.07-11.76-11.9-17.64-17.84,3-3,5.91-5.92,8.69-9-8.75-9-18-17.61-26.45-27q4.39-4.27,8.62-8.71c-5.81-6-11.81-11.89-17.72-17.85,2.93-3,6.1-5.8,8.74-9.07-2.68-3.21-5.8-6-8.66-9.05,2.94-2.84,5.81-5.76,8.63-8.73q-4.3-4.46-8.72-8.82c11.26-11.53,22.88-22.7,34-34.41,9.77-9.2,19.08-18.85,28.63-28.27a93.51,93.51,0,0,0,9.12,8.46c8.82-8.8,17.65-17.61,26.56-26.32,3,2.83,6,5.67,8.83,8.73-8.64,9.3-17.77,18.13-26.83,27q-4.38-4.47-8.84-8.86-31.27,31.26-62.55,62.48,4.35,4.49,8.83,8.84c-2.73,3.06-5.83,5.79-8.49,8.92,2.36,3.48,5.69,6.13,8.63,9.09,9-8.88,17.77-18,26.89-26.75l8.77,8.74c-11.72,12.13-23.85,23.85-35.7,35.85q8.91,9,17.92,17.92c8.93-8.93,17.77-18,26.8-26.78q4.55,4.35,8.89,8.87c-11.86,12-23.77,23.9-35.82,35.67,5.95,6,11.92,12,18,17.9,12-11.84,23.76-23.85,35.71-35.7,3.07,2.9,6.08,5.89,9,9q-40.14,40.14-80.36,80.22Z"/><path id="path3026" class="cls-4" d="M1176.26,281.61c-9.09-8.79-18-17.78-26.85-26.79,2.9-3,5.8-6,8.85-8.91,6.07,5.79,11.89,11.83,17.87,17.71,6.12-5.69,11.5-12.14,17.8-17.64a95.25,95.25,0,0,1,9,8.93C1194.08,263.83,1185.15,272.7,1176.26,281.61Z"/><path id="path3030" class="cls-4" d="M1193.89,245.54a69.08,69.08,0,0,1-8.88-8.48c2.92-3.05,5.9-6,8.91-9-3-3-6-6-8.9-9,5.88-6,11.89-11.88,17.8-17.86q-4.46-4.38-8.82-8.87c6-5.92,11.58-12.35,18.12-17.67a115.45,115.45,0,0,1,8.72,8.7c-5.8,6-11.7,11.86-17.54,17.8,2.94,3,5.84,6,8.67,9.05-5.77,6-11.94,11.55-17.25,17.94,2.86,2.84,5.67,5.75,8.37,8.75-3,3-5.6,6.39-9.2,8.64Z"/><path id="path3038" class="cls-4" d="M1211.75,174.21c-3.15-2.69-5.94-5.76-8.85-8.7,5.85-6,11.85-11.87,17.76-17.81-3-3-6-5.95-8.85-9,5.88-6,11.92-11.82,17.76-17.83Q1194,85.08,1158.29,49.48c-6,5.84-11.85,11.89-17.86,17.77-3.08-3-6.16-6-9-9.22,8.41-9.38,18.19-17.41,26.85-26.57,15.44,14.71,30.38,29.92,45.48,45,14.74,14.71,29.45,29.46,44,44.39-8.79,9-17.75,17.86-26.52,26.89,2.9,2.92,5.76,5.87,8.61,8.83-6,5.9-11.51,12.36-18,17.67Z"/><text class="cls-5" transform="translate(242.45 281.61)">¡Hazme Click!</text><line class="cls-6" x1="172.45" y1="317.24" x2="1012.45" y2="317.24"/></g></svg>