<svg id="Capa_2" data-name="Capa 2" xmlns="http://www.w3.org/2000/svg" viewBox="0 0 736.26 857.03"><defs><style>.cls-1,.cls-2{fill:none;stroke:#000;stroke-miterlimit:10;stroke-width:15px;}.cls-2{stroke-linecap:round;}</style></defs><title>Mesa de trabajo 1</title><rect class="cls-1" x="229.94" y="628.65" width="276.13" height="79.48" rx="18.84"/><path class="cls-1" d="M288.77,708.13v58a56.58,56.58,0,0,0,56.58,56.58h51.49a56.58,56.58,0,0,0,56.58-56.58v-58Z"/><line class="cls-2" x1="342.97" y1="715.35" x2="342.97" y2="772.65"/><line class="cls-2" x1="401.81" y1="712.26" x2="401.81" y2="769.55"/><path class="cls-1" d="M147.87,374.71h82.07v17.65a39.48,39.48,0,0,0,39.48,39.49h0a39.48,39.48,0,0,0,39.48-39.49V374.71h61.61"/><path class="cls-1" d="M369.31,144.31l-.1,89.82H351.56a39.48,39.48,0,0,0-39.48,39.48h0a39.48,39.48,0,0,0,39.48,39.48h17.65v61.61"/><path class="cls-1" d="M601.4,374.47l-89.72.24V357.06a39.49,39.49,0,0,0-39.49-39.49h0a39.49,39.49,0,0,0-39.48,39.49v17.65H371.1"/><path class="cls-1" d="M369.21,628.65V515.29h17.66a39.49,39.49,0,0,0,39.48-39.49h0a39.49,39.49,0,0,0-39.48-39.48H369.21V374.71"/><path class="cls-1" d="M371.1,151.78c-123.13,0-222.94,99.81-222.94,222.93,0,94.05,58.24,174.49,140.61,207.24v46.7"/><path class="cls-1" d="M594,374.71C594,468.76,535.8,549.2,453.42,582v46.7"/><path class="cls-1" d="M482,40.45v82.07H464.33A39.49,39.49,0,0,0,424.85,162h0a39.49,39.49,0,0,0,39.48,39.49H482V263.1"/><path class="cls-1" d="M704.63,264.77H622.57V247.12a39.49,39.49,0,0,0-39.49-39.48h0a39.49,39.49,0,0,0-39.48,39.48v17.65H474.52"/><path class="cls-1" d="M474.39,40.45c124.58,0,233.17,107.29,233.17,231.87"/><line class="cls-2" x1="29.42" y1="374.71" x2="93.68" y2="374.71"/><line class="cls-2" x1="78.48" y1="203.87" x2="133.59" y2="236.92"/><line class="cls-2" x1="609.6" y1="512.55" x2="664.71" y2="545.59"/><line class="cls-2" x1="646.06" y1="374.71" x2="710.32" y2="374.71"/><line class="cls-2" x1="369.31" y1="34.17" x2="369.31" y2="98.43"/><line class="cls-2" x1="78.48" y1="545.59" x2="133.59" y2="512.55"/><line class="cls-2" x1="201.74" y1="80.29" x2="229.94" y2="138.03"/></svg>