<?xml version="1.0" encoding="utf-8"?>
<!-- Svg Vector Icons : http://www.onlinewebfonts.com/icon -->
<!DOCTYPE svg PUBLIC "-//W3C//DTD SVG 1.1//EN" "http://www.w3.org/Graphics/SVG/1.1/DTD/svg11.dtd">
<svg version="1.1" xmlns="http://www.w3.org/2000/svg" xmlns:xlink="http://www.w3.org/1999/xlink" x="0px" y="0px" viewBox="0 0 1000 1000" enable-background="new 0 0 1000 1000" xml:space="preserve">
<metadata> Svg Vector Icons : http://www.onlinewebfonts.com/icon </metadata>
<g><g><g id="Hammer"><path d="M907.2,840.7c-4.5,0-8.6-3-9.9-7.6c-7.2-26.9-30.2-39.8-59.3-56.3c-33.2-18.7-70.7-40-96.2-88.1c-41.9-79-91.9-102.3-92.4-102.5c-5.1-2.3-7.4-8.4-5.1-13.5c2.3-5.1,8.3-7.4,13.5-5.2c2.3,1,56.7,25.8,102.1,111.7c22.7,42.8,57.5,62.5,88.2,79.8c30.6,17.3,59.5,33.6,68.9,68.8c1.5,5.5-1.8,11.1-7.2,12.5C909,840.6,908.1,840.7,907.2,840.7z"/><g><path d="M92.5,447.9c-12,0-23.4-4.7-32-13.3l-37.2-37.2C5.9,380,5.5,351.9,22.6,334.9l23.3-23.3c16.6-16.5,45.7-16.2,62.6,0.7l37.2,37.2c8.4,8.4,13.1,19.4,13.3,31.2c0.2,11.9-4.3,23.1-12.6,31.4l-23.2,23.2C115,443.4,104.1,447.9,92.5,447.9z M76.5,329.7c-3.4,0-6.6,1.3-8.9,3.6l-23.3,23.2c-5.1,5.1-4.7,13.7,0.7,19.1l37.2,37.2c5.3,5.3,14.2,5.7,19.1,0.7l23.3-23.2c2.4-2.4,3.7-5.6,3.6-9.1c-0.1-3.7-1.6-7.3-4.3-10L86.7,334C83.9,331.2,80.3,329.7,76.5,329.7z"/><path d="M153.3,376.2c-3.9,0-7.9-1.5-10.9-4.5c-6-6-6-15.7,0-21.7c39.8-39.8,74.7-57.1,103.8-51.3c11.4,2.3,20.3,7.9,26.9,14.1l76.4-76.3c-15.9-16.5-21.9-34.1-18-52.3c10-46.3,88.9-79.6,140.8-96.8c-116.6-33.5-205.8,37.9-209.9,41.3c-42.2,38.8-91.6,88.1-96.8,99.3c-2.7,5.8-4.8,11.9-6.8,17.9c-4.1,11.9-8.3,24.1-16.4,34.2c-10.5,13.1-35.1,35.3-36.2,36.3c-6.3,5.7-16,5.1-21.7-1.2c-5.7-6.3-5.2-16,1.2-21.7c6.6-5.9,25.3-23.4,32.7-32.6c4.7-5.9,7.9-15.2,11.3-25c2.4-7,4.9-14.1,8-20.8c10.2-21.8,82.5-89.3,104.5-109.4c5.8-4.9,130.4-105.4,284.6-29.9c5.8,2.8,9.2,9,8.5,15.4c-0.7,6.4-5.3,11.7-11.6,13.3c-63,15.6-155,52.6-162.2,86.3c-2.2,10,4.5,21.2,19.7,33.2c3.4,2.7,5.6,6.8,5.8,11.2c0.3,4.4-1.4,8.7-4.5,11.8L282.4,347.1c-3.6,3.6-8.8,5.1-13.8,4.2c-5-1-9.2-4.4-11.2-9.2c-0.1-0.3-5.1-11.1-17.3-13.3c-10.4-1.9-34,1.2-75.8,42.9C161.2,374.7,157.3,376.2,153.3,376.2z"/><path d="M506,560.2c-3.9,0-7.9-1.5-10.9-4.5L279.1,339.7c-6-6-6-15.7,0-21.7c6-6,15.7-6,21.7,0l216,216.1c6,6,6,15.7,0,21.7C513.8,558.8,509.9,560.2,506,560.2z"/><path d="M578.6,487.6c-3.9,0-7.9-1.5-10.8-4.5L348,263.4c-6-6-6-15.7,0-21.8c6-6,15.7-6,21.7,0l219.8,219.7c6,6,6,15.7,0,21.7C586.5,486.1,582.6,487.6,578.6,487.6z"/><path d="M530.9,628.2c-12.5,0-24.2-4.9-33-13.7c-8.8-8.8-13.7-20.5-13.7-33c0-12.4,4.9-24.2,13.7-33l88.6-88.6c17.7-17.7,48.4-17.6,66,0c8.8,8.8,13.7,20.5,13.7,33c0,12.5-4.8,24.2-13.7,33l-88.6,88.6C555.1,623.3,543.4,628.2,530.9,628.2z M619.5,476.9c-4.3,0-8.3,1.7-11.3,4.7l-88.6,88.6c-3,3-4.7,7-4.7,11.3s1.7,8.2,4.7,11.3c6,6.1,16.5,6.1,22.6,0l88.6-88.6c3-3,4.7-7.1,4.7-11.3s-1.7-8.3-4.7-11.3C627.8,478.6,623.8,476.9,619.5,476.9z"/><g><path d="M838.5,952.4c-38,0-58.3-38.6-78-76c-18.7-35.4-39.8-75.6-77.4-96.2c-89.9-49.2-156.5-152.4-159.3-156.7c-4.6-7.2-2.5-16.6,4.7-21.2c7.1-4.5,16.6-2.5,21.2,4.7c0.7,1,65.3,100.9,148.2,146.4c45.7,25.1,70.1,71.5,89.8,108.9c23.5,44.5,36.1,63.4,57.7,58.8c1.1-0.3,2.1-0.4,3.2-0.4c-0.7,0,17-3.7,56-42.7c6-6,15.7-6,21.7,0c6,6,6,15.8,0,21.8c-43.3,43.3-66.9,50.5-75.5,51.5C846.6,951.9,842.4,952.4,838.5,952.4z"/><path d="M918.3,901.3c-3.9,0-7.9-1.5-10.9-4.5c-6-6-6-15.7,0-21.7c43-43,48.8-64.8,48.8-65.1c0.2-0.8,0.5-2,0.9-2.7c7.1-16.8-6.9-27.5-55.7-53.1c-39.1-20.5-87.8-46.1-112.9-91.8c-45.4-82.9-145.3-147.6-146.4-148.2c-7.2-4.6-9.2-14.1-4.7-21.2c4.6-7.1,14.1-9.2,21.2-4.7c4.4,2.8,107.5,69.4,156.7,159.3c20.6,37.5,62.9,59.7,100.2,79.4c43.3,22.7,88.1,46.3,70.2,91c-2.1,8.1-12,34.1-56.8,78.8C926.2,899.7,922.2,901.3,918.3,901.3z"/></g><path d="M250.9,326c-3.9,0-7.9-1.5-10.9-4.5l-95.1-95.1c-6-6-6-15.7,0-21.7s15.7-6,21.7,0l95.1,95.1c6,6,6,15.7,0,21.7C258.8,324.5,254.8,326,250.9,326z"/><path d="M345.3,229.7c-3.9,0-7.9-1.5-10.9-4.5l-94.2-94.1c-6-6-6-15.7,0-21.7c6-6,15.7-6,21.7,0l94.2,94.2c6,6,6,15.7,0,21.7C353.2,228.2,349.3,229.7,345.3,229.7z"/></g></g><g></g><g></g><g></g><g></g><g></g><g></g><g></g><g></g><g></g><g></g><g></g><g></g><g></g><g></g><g></g></g><g></g><g></g><g></g><g></g><g></g><g></g><g></g><g></g><g></g><g></g><g></g><g></g><g></g><g></g><g></g></g>
</svg>