<?xml version="1.0" encoding="utf-8"?>
<!-- Svg Vector Icons : http://www.onlinewebfonts.com/icon -->
<!DOCTYPE svg PUBLIC "-//W3C//DTD SVG 1.1//EN" "http://www.w3.org/Graphics/SVG/1.1/DTD/svg11.dtd">
<svg version="1.1" xmlns="http://www.w3.org/2000/svg" xmlns:xlink="http://www.w3.org/1999/xlink" x="0px" y="0px" viewBox="0 0 1000 1000" enable-background="new 0 0 1000 1000" xml:space="preserve">
<metadata> Svg Vector Icons : http://www.onlinewebfonts.com/icon </metadata>
<g><g transform="translate(0.000000,511.000000) scale(0.100000,-0.100000)"><path d="M394.1,4427.5c-106.7-37-200.4-119.8-248.3-220l-45.8-95.9l4.4-3060.7l6.5-3060.7l61-87.1c32.7-47.9,100.2-108.9,152.5-139.4l91.5-52.3l1923.6-6.5l1921.4-4.4v-52.3c0-106.7-91.5-403-187.3-599.1c-132.9-278.8-257.1-448.8-529.4-727.6c-222.2-226.6-230.9-239.6-230.9-331.1c0-76.3,13.1-108.9,61-156.9l58.8-61h1568.5H6570l58.8,61c47.9,47.9,61,80.6,61,156.9c0,91.5-8.7,104.6-230.9,331.1c-272.3,278.8-396.5,448.8-529.4,727.6c-95.8,196.1-187.3,492.3-187.3,599.1v52.3l1923.6,4.4c1751.5,6.5,1927.9,8.7,1988.9,43.6c100.2,54.5,202.6,169.9,228.7,257.1c13.1,50.1,19.6,1093.6,15.3,3119.5l-6.5,3041.1l-65.4,93.7c-34.8,50.1-104.6,113.3-152.5,137.2l-87.1,45.8l-4563.8,4.4C1875.4,4449.3,439.8,4442.7,394.1,4427.5z M9532.7,4083.3c43.6-43.6,43.6-71.9,43.6-2997.5c0-1993.3-6.5-2967-21.8-2995.4c-24-41.4-95.9-41.4-4553-41.4c-4457.1,0-4529,0-4553,41.4c-15.3,28.3-21.8,1004.3-21.8,3006.2v2962.7l47.9,32.7c43.6,30.5,509.8,34.9,4531.2,34.9C9460.8,4126.9,9489.1,4126.9,9532.7,4083.3z M5402.4-2358.4c6.5-34.9,17.4-104.6,26.1-159c56.7-385.6,320.2-895.3,651.4-1257l124.2-137.2H5001.5H3801.2l135.1,150.3c289.7,324.6,503.2,712.3,599.1,1082.7c28.3,115.5,52.3,233.1,52.3,259.2c0,122-4.4,119.8,413.9,119.8h387.8L5402.4-2358.4z"/><path d="M644.6,1077v-2810.2h4356.9h4356.9V1077v2810.2H5001.5H644.6V1077z M9009.9,1077v-2483.4H5001.5H993.2V1077v2483.4h4008.3h4008.3V1077z"/><path d="M5905.6,3290.3c-374.7-95.8-612.1-381.2-666.6-799.5c-43.6-337.7-30.5-318.1-649.2-941.1c-307.2-309.3-594.7-581.7-640.5-605.6c-45.7-24-163.4-52.3-263.6-63.2c-535.9-61-823.5-324.6-888.8-814.8c-30.5-220-2.2-466.2,63.2-555.5c24-30.5,78.4-74.1,124.2-98c128.5-63.2,222.2-24,440.1,185.2c98,93.7,189.5,172.1,202.6,172.1c58.8,0,13.1-89.3-108.9-207c-180.8-178.6-246.2-291.9-230.9-405.2c24-185.2,163.4-257.1,496.7-259.2c444.4,0,714.5,146,880.1,477.1c61,117.6,117.6,355.1,119.8,481.4c2.2,169.9,78.4,267.9,666.6,851.8c527.2,522.8,572.9,562,681.9,594.7c65.4,19.6,154.7,34.9,198.2,34.9c113.3,0,318,58.8,442.2,124.2c313.7,172.1,479.3,535.9,442.2,962.9c-26.1,281-111.1,394.3-296.3,394.3c-117.6,0-200.4-52.3-392.1-248.3c-65.4-67.5-130.7-122-146-122c-65.4,0-17.4,82.8,135.1,239.6c165.6,172.1,207,239.6,207,344.2c0,82.8-71.9,191.7-156.9,235.3C6472,3318.6,6062.4,3331.7,5905.6,3290.3z M6193.1,2843.7c-111.1-117.6-146-172.1-165.6-259.2c-45.7-185.2,19.6-339.8,172.1-418.3c178.6-91.5,355.1-43.6,551.2,148.1l124.2,122v-152.5c0-196.1-50.1-342-152.5-444.4c-98-98-233.1-148.1-477.1-176.5c-331.1-37-363.8-63.2-1071.8-775.5c-690.6-694.9-699.3-710.2-729.8-1026c-39.2-431.3-204.8-607.8-596.9-631.7l-185.2-10.9l143.8,152.5c115.5,122,150.3,176.4,169.9,263.6c34.9,141.6,4.4,254.9-89.3,346.4c-180.8,174.3-387.8,152.5-620.9-65.4L3128-212.6v152.5c0,161.2,37,294.1,108.9,396.5c71.9,102.4,285.4,191.7,507.6,215.7c150.3,15.3,228.7,37,348.5,95.8c139.4,69.7,217.8,139.4,736.3,662.3c636.1,642.6,677.5,697.1,718.9,978.1c10.9,82.8,30.5,198.2,43.6,259.2c58.8,294.1,259.2,435.7,627.4,444.4l115.5,2.2L6193.1,2843.7z"/></g></g>
</svg>